<?xml version="1.0" encoding="UTF-8" standalone="no"?>
<svg xmlns="http://www.w3.org/2000/svg" height="166.63mm" width="643.48mm" version="1.1" viewBox="0 0 643.4787 166.63403">
 <g transform="translate(-28.951 -49.459)">
  <path d="m101.11 216.09-72.155-41.659-0.000002-83.317 72.155-41.659 72.155 41.659 0.00001 83.317z" fill="#44525f"/>
  <g fill="#fff" transform="translate(-2.8525 3.1933)">
   <path d="m95.606 134.51 1.4521-2.1636l-27.595-41.117v76.697h11.465v-38.943l9.5704 14.212 5.1078-8.6882"/>
   <path d="m103.96 142.63-0.004-0.007-6.9074 10.302 6.9116 10.264 22.931-34.199v38.943h11.565v-76.687l-34.496 51.397"/>
  </g>
  <g transform="matrix(1.7045 0 0 1.7045 -598.2 1602.1)">
   <g fill="#44525f">
    <path d="m468.21-876.66h18.438v3.3203h-14.492v8.6328h13.887v3.3203h-13.887v10.566h14.84v3.3203h-18.789z"/>
    <path d="m520.11-862.11q0-5.8984-2.832-8.5938-2.832-2.7148-8.8086-2.7148h-4.7656v22.676h4.7656q5.9766 0 8.8086-2.7148 2.832-2.7344 2.832-8.6524zm4.1602 0q0 3.9062-1.0547 6.7188-1.0352 2.793-3.1641 4.5312-2.1094 1.7383-5.1172 2.5586-2.9883 0.80078-7.0703 0.80078h-8.1055v-29.16h8.1055q8.2422 0 12.324 3.4375 4.082 3.4375 4.082 11.113z"/>
    <path d="m536.77-876.66h3.9453v29.16h-3.9453z"/>
    <path d="m567.36-877.18q5.2344 0 9.2773 2.7734v4.1602q-3.9453-3.6914-9.043-3.6914-5.1172 0-7.7148 3.125-2.5977 3.1055-2.5977 8.7695 0 5.6445 2.5977 8.7695 2.5976 3.1055 7.7148 3.1055 5.0977 0 9.043-3.6914v4.1211q-4.1602 2.8125-9.2773 2.8125-6.6602 0-10.449-4.043-3.7891-4.043-3.7891-11.074 0-7.0312 3.7695-11.074 3.7891-4.0625 10.469-4.0625z"/>
   </g>
   <g fill="#b3b3b3">
    <path d="m589-876.66h16.758v3.3203h-12.812v8.5938h11.562v3.3203h-11.562v13.926h-3.9453z"/>
    <path d="m637.11-868.26q0 2.832-1.3086 4.6289-1.3086 1.7774-3.6914 2.4609 2.5 0.83985 4.8828 5.7031l4.0039 7.9688h-4.2383l-3.7305-7.4805q-1.3477-2.7344-2.7148-3.7891-1.3477-1.0547-3.7891-1.0547h-4.2969v12.324h-3.9453v-29.16h8.9062q4.8438 0 7.3828 2.0312 2.5391 2.0117 2.5391 6.3672zm-4.1602 0q0-2.5977-1.4844-3.8672-1.4844-1.2891-4.2773-1.2891h-4.9609v10.352h4.9609q2.793 0 4.2773-1.2891 1.4844-1.3086 1.4844-3.9062z"/>
    <path d="m662.08-872.77-5.3516 14.512h10.723zm-2.2266-3.8867h4.4727l11.113 29.16h-4.1016l-2.6562-7.4805h-13.145l-2.6562 7.4805h-4.1602z"/>
    <path d="m685.91-876.66h5.8789l7.4414 19.844 7.4805-19.844h5.8789v29.16h-3.8477v-25.605l-7.5195 20h-3.9648l-7.5195-20v25.605h-3.8281z"/>
    <path d="m726.67-876.66h18.438v3.3203h-14.492v8.6328h13.887v3.3203h-13.887v10.566h14.844v3.3203h-18.789z"/>
   </g>
  </g>
 </g>
</svg>
