<?xml version="1.0" ?><!DOCTYPE svg  PUBLIC '-//W3C//DTD SVG 1.1//EN'  'http://www.w3.org/Graphics/SVG/1.1/DTD/svg11.dtd'><svg height="512px" id="icon_design" style="enable-background:new 0 0 512 512;" version="1.1" viewBox="0 0 512 512" width="512px" xml:space="preserve" xmlns="http://www.w3.org/2000/svg" xmlns:xlink="http://www.w3.org/1999/xlink">
<g><path d="M323.82,259.068c-1.713-0.793-3.564-1.198-5.386-1.198c-4.784,0-9.428,2.673-11.586,7.376l-0.029-0.029     c-0.762,1.722-1.169,3.515-1.169,5.317c0,4.793,2.703,9.417,7.358,11.655c1.723,0.792,3.466,1.168,5.169,1.168h0.217     c4.813,0,9.328-2.752,11.556-7.268c0.832-1.853,1.209-3.733,1.169-5.476C331.119,265.821,328.416,261.217,323.82,259.068z"/><path d="M351.508,82.795c-39.521,0.762-72.763,24.835-87.864,58.682l-0.208-0.05     c-1.188,2.802-3.961,4.763-7.188,4.763c-3.238,0-6.021-1.96-7.199-4.763l-0.307,0.079     c-15.339-34.499-49.542-58.711-89.756-58.711c-54.483,0-98.667,44.175-98.667,98.687c0,24.697,7.15,47.255,24.143,64.544     c16.963,17.349,149.16,150.338,153.785,154.567c4.644,4.188,10.932,8.308,17.972,8.308c7.041,0,13.745-4.604,17.696-8.308     c3.961-3.764,142.664-143.348,142.664-143.348c20.696-20.617,36.124-46.571,35.541-77.694     C451.037,125.059,406.011,81.735,351.508,82.795z M343.507,282.111c-13.458,28.885-36.659,34.549-37.956,34.738     c-0.574,0.118-1.159,0.197-1.733,0.197c-1.198,0-2.376-0.276-3.456-0.763l-170.658-79.545c-1.624-0.762-2.971-2.04-3.803-3.624     c-0.376-0.792-4.614-9.041-4.614-22.241c0-8.2,1.674-18.251,6.822-29.252c13.467-28.896,36.669-34.529,37.966-34.748     c1.713-0.386,3.535-0.188,5.159,0.574l170.658,79.565c1.614,0.733,2.941,2.041,3.753,3.595c0.426,0.792,4.604,9.021,4.604,22.281     C350.29,261.058,348.646,271.099,343.507,282.111z"/><path d="M176.909,212.229c-1.753-0.872-3.645-1.258-5.407-1.198c-4.773-0.06-9.407,2.694-11.527,7.328     c-0.89,1.683-1.247,3.624-1.247,5.387c0,4.822,2.793,9.397,7.436,11.576c1.654,0.792,3.526,1.168,5.338,1.168h0.099     c4.734,0,9.309-2.743,11.477-7.377l0.049-0.109c0.714-1.693,1.12-3.456,1.089-5.277     C184.247,218.983,181.563,214.358,176.909,212.229z"/><path d="M200.101,192.652l0.049-0.139c0.714-1.634,1.089-3.406,1.089-5.229c0.03-4.763-2.654-9.397-7.337-11.546     c-1.713-0.872-3.644-1.248-5.407-1.229c-4.793-0.02-9.368,2.723-11.526,7.387c-0.861,1.605-1.208,3.566-1.208,5.328     c0,4.793,2.753,9.398,7.358,11.606c1.732,0.762,3.554,1.148,5.376,1.148h0.079C193.347,199.98,197.932,197.277,200.101,192.652z"/><path d="M226.945,186.255c-4.06-1.911-8.921-0.168-10.813,3.921l-24.954,53.453     c-1.882,4.06-0.138,8.873,3.921,10.783c1.119,0.515,2.287,0.763,3.446,0.763c3.05,0,5.99-1.742,7.367-4.684l24.954-53.434     C232.779,192.979,231.016,188.126,226.945,186.255z"/><path d="M164.56,198.692l0.07-0.108c0.703-1.684,1.129-3.516,1.129-5.308c0-4.793-2.724-9.398-7.357-11.547     c-1.724-0.871-3.645-1.228-5.387-1.228c-4.803,0-9.378,2.723-11.517,7.377c-0.891,1.693-1.247,3.654-1.247,5.397     c0,4.842,2.772,9.417,7.368,11.546c1.722,0.792,3.515,1.168,5.366,1.168h0.1C157.836,205.99,162.411,203.267,164.56,198.692z"/><path d="M276.438,209.318c-4.07-1.911-8.892-0.138-10.783,3.921l-24.885,53.503     c-1.911,4.06-0.149,8.882,3.951,10.814c1.109,0.515,2.257,0.762,3.396,0.762c3.069,0,5.991-1.773,7.377-4.704l24.895-53.542     C282.28,216.012,280.537,211.219,276.438,209.318z"/><path d="M311.473,246.075c0.861-1.871,1.218-3.733,1.218-5.476c0-4.842-2.753-9.367-7.348-11.545     c-1.713-0.784-3.564-1.189-5.356-1.189c-4.822,0-9.427,2.694-11.567,7.317h-0.009c-0.793,1.713-1.209,3.546-1.209,5.397     c0,4.763,2.734,9.388,7.338,11.565c1.713,0.822,3.486,1.179,5.169,1.179h0.228C304.719,253.324,309.265,250.621,311.473,246.075z     "/><path d="M288.34,265.554c-1.733-0.822-3.554-1.228-5.376-1.228c-4.813,0-9.438,2.752-11.606,7.427l0.02,0.029     c-0.782,1.693-1.188,3.485-1.188,5.338c0,4.772,2.723,9.318,7.337,11.526c1.704,0.812,3.446,1.168,5.159,1.168h0.248     c4.793,0,9.299-2.723,11.537-7.219c0.852-1.882,1.208-3.733,1.208-5.525C295.679,272.248,292.915,267.703,288.34,265.554z"/></g></svg>