<?xml version="1.0" ?><!DOCTYPE svg  PUBLIC '-//W3C//DTD SVG 1.1//EN'  'http://www.w3.org/Graphics/SVG/1.1/DTD/svg11.dtd'><svg height="512px" id="Layer_5" style="enable-background:new 0 0 512 512;" version="1.1" viewBox="0 0 512 512" width="512px" xml:space="preserve" xmlns="http://www.w3.org/2000/svg" xmlns:xlink="http://www.w3.org/1999/xlink">
<g><path d="M191.766,358.648c-4.614-0.032-9.238,1.749-12.748,5.278c-3.519,3.499-5.299,8.154-5.299,12.767    c0,4.625,1.78,9.28,5.279,12.779c3.498,3.529,8.112,5.278,12.767,5.278c4.604,0,9.239-1.749,12.798-5.278    c3.509-3.529,5.29-8.112,5.248-12.748c0.042-4.623-1.739-9.269-5.278-12.798C200.984,360.397,196.37,358.616,191.766,358.648z"/><path d="M367.014,164.902c4.593,0,9.228-1.779,12.758-5.288c3.54-3.529,5.32-8.124,5.289-12.718    c0.031-4.634-1.791-9.289-5.289-12.798c-3.53-3.529-8.165-5.32-12.758-5.32c-4.634,0-9.259,1.76-12.757,5.29    c-3.53,3.539-5.32,8.164-5.32,12.788c0,4.604,1.759,9.229,5.289,12.758C357.725,163.154,362.38,164.902,367.014,164.902z"/><path d="M364.682,221.886c4.593,0,9.197-1.749,12.757-5.257c3.53-3.53,5.29-8.196,5.259-12.788    c0.03-4.634-1.76-9.259-5.238-12.728c-3.529-3.569-8.185-5.32-12.809-5.32c-4.634,0-9.289,1.75-12.757,5.32    c-3.509,3.469-5.29,8.093-5.29,12.728c0,4.592,1.729,9.228,5.31,12.788C355.454,220.138,360.047,221.886,364.682,221.886z"/><path d="M138.455,341.43c4.625,0,9.279-1.759,12.798-5.288c3.499-3.521,5.279-8.145,5.249-12.728    c0.031-4.625-1.75-9.238-5.249-12.779c-3.56-3.518-8.174-5.299-12.798-5.299c-4.613,0-9.228,1.781-12.737,5.299    c-3.56,3.512-5.329,8.154-5.299,12.779c-0.03,4.625,1.77,9.238,5.299,12.768C129.187,339.671,133.811,341.43,138.455,341.43z"/><path d="M329.212,258.543c2.476,2.506,5.739,3.753,9.003,3.753c3.263,0,6.527-1.247,9.003-3.753    c4.993-4.962,4.993-13.034,0-18.006l-72.564-72.566c-4.972-4.971-13.044-4.971-18.006,0c-4.972,5.003-4.972,13.076,0,18.047    L329.212,258.543z"/><path d="M229.322,358.402c2.476,2.485,5.739,3.725,9.023,3.725c3.264,0,6.527-1.239,9.003-3.725    c5.002-5.004,5.002-13.053,0-18.057l-72.503-72.513c-4.972-4.992-13.023-4.992-18.036,0c-4.962,4.971-4.962,13.032,0,18.026    L229.322,358.402z"/><path d="M311.35,168.576c4.594,0,9.218-1.781,12.758-5.248c3.53-3.541,5.299-8.196,5.279-12.83    c0.02-4.593-1.75-9.248-5.249-12.747c-3.529-3.499-8.164-5.28-12.757-5.28c-4.635,0-9.29,1.75-12.788,5.311    c-3.529,3.499-5.32,8.124-5.32,12.716c0,4.634,1.759,9.258,5.32,12.788C302.123,166.816,306.746,168.576,311.35,168.576z"/><path d="M186.958,471.418c0.092,0,0.194,0,0.277,0c0.94,0,1.535-0.029,1.667-0.029    c3.212-0.094,6.281-1.443,8.604-3.725l258.974-259.005c2.282-2.312,3.602-5.35,3.724-8.603c0-0.133,0.031-0.686,0.031-1.637    c0.103-9.535-2.947-52.563-46.938-96.494c-43.991-44.063-87-47.06-96.534-46.967c-1.095,0-1.781,0.061-2.098,0.061    c-3.06,0.214-5.944,1.535-8.113,3.725L47.599,317.706c-2.118,2.097-3.417,4.817-3.704,7.764c-0.03,0.409-0.102,1.249-0.102,2.497    c-0.082,9.545,2.916,52.584,46.947,96.515C134.271,468.072,176.851,471.418,186.958,471.418z M320.691,80.666    c11.213,0.941,41.638,6.415,74.58,39.273c32.891,32.975,38.323,63.45,39.264,74.622L183.408,445.699    c-11.142-0.922-41.638-6.344-74.652-39.244c-32.932-33.023-38.364-63.48-39.264-74.631L320.691,80.666z"/><path d="M134.782,397.115c4.614,0,9.269-1.781,12.758-5.28c3.499-3.56,5.299-8.205,5.279-12.827    c0.02-4.625-1.719-9.24-5.208-12.729l-1.279,1.238l1.279-1.279c-3.56-3.519-8.185-5.27-12.798-5.27    c-4.635,0-9.279,1.803-12.809,5.332c-3.551,3.499-5.299,8.143-5.299,12.736c0,4.625,1.8,9.238,5.299,12.768    C125.494,395.334,130.159,397.115,134.782,397.115z"/></g></svg>