<?xml version="1.0" ?><!DOCTYPE svg  PUBLIC '-//W3C//DTD SVG 1.1//EN'  'http://www.w3.org/Graphics/SVG/1.1/DTD/svg11.dtd'><svg height="512px" id="icon_design" style="enable-background:new 0 0 512 512;" version="1.1" viewBox="0 0 512 512" width="512px" xml:space="preserve" xmlns="http://www.w3.org/2000/svg" xmlns:xlink="http://www.w3.org/1999/xlink">
<g><path d="M294.456,343.395c14.301,0,25.917-11.569,25.917-25.89l0.039-159.165l-137.362-0.094v32.934h50.439v16.691     H183.05v33.846h50.439v16.689H183.05v33.855h50.431v16.709H183.05v8.535c0.019,14.32,11.617,25.89,25.927,25.89l85.479,0.028     V343.395z"/><path d="M256.438,415.486c0.124,3.754,0.722,18.435,8.847,34.963c8.29,18.104,29.958,37.866,63.329,37.866     c0.513,0,1.034,0,1.556-0.019h46.486v-36.073H330.17c-21.508-0.597-27.122-8.394-32.642-17.886     c-2.408-4.799-3.793-10.119-4.447-14.054c-0.313-1.963-0.483-3.604-0.551-4.619c-0.008-0.104,0-0.104-0.008-0.179h22.797v-29.949     c29.16-8.914,50.469-35.854,50.498-68.032V158.529c-0.029-33.124-22.675-60.692-53.268-68.743     c-1.603-15.154-7.71-28.431-17.468-37.847c-11.361-11.029-26.895-16.946-43.385-16.918c-16.49-0.028-32.062,5.889-43.385,16.918     c-9.767,9.417-15.864,22.693-17.467,37.847c-30.593,8.051-53.257,35.619-53.257,68.743v158.976     c0,39.403,31.958,71.323,71.379,71.37h24.685v26.611H256.438z M251.697,58.673c18.579,0.474,32.613,10.146,36.643,28.477h-73.295     C219.085,68.819,233.101,59.147,251.697,58.673z M208.966,365.226c-26.363-0.02-47.709-21.385-47.738-47.721V158.529     c0.028-26.343,21.375-47.699,47.738-47.728h85.471c26.363,0.029,47.682,21.385,47.738,47.728v158.976     c0.029,23.804-17.555,43.396-40.484,46.961l-10.033,1.546v25.87h-34.365v-26.656H208.966z"/></g></svg>