<?xml version="1.0" ?><!DOCTYPE svg  PUBLIC '-//W3C//DTD SVG 1.1//EN'  'http://www.w3.org/Graphics/SVG/1.1/DTD/svg11.dtd'><svg height="512px" id="Layer_5" style="enable-background:new 0 0 512 512;" version="1.1" viewBox="0 0 512 512" width="512px" xml:space="preserve" xmlns="http://www.w3.org/2000/svg" xmlns:xlink="http://www.w3.org/1999/xlink">
<g><path d="M342.314,170.569c2.529,2.542,5.865,3.816,9.198,3.816c3.338,0,6.661-1.275,9.203-3.816     c5.091-5.092,5.091-13.331,0-18.412l-13.852-13.854l-22.838-22.856l-15.441-15.422l-41.312-41.31     c-5.081-5.093-13.33-5.093-18.402,0c-5.122,5.081-5.122,13.319,0,18.412l0.357,0.356L85.376,241.365     c-12.768,12.746-19.239,29.611-19.209,46.351c-0.03,16.709,6.397,33.573,19.209,46.351     c12.725,12.745,29.557,19.187,46.295,19.187c16.729,0,33.605-6.409,46.371-19.187v-0.032l163.854-163.883L342.314,170.569z      M298.692,176.529H219.29l-96.032,96.027c-15.068,15.066-16.888,33.813-9.318,50.219c-3.618-1.83-7.089-4.09-10.122-7.121     c-7.777-7.79-11.584-17.795-11.584-27.938c0-10.174,3.807-20.18,11.554-27.906L267.626,95.938l55.857,55.812L298.692,176.529z"/><path d="M419.456,317.985l-0.022-0.031c-6.388-11.178-55.111-95.43-55.111-95.461     c-2.344-4.025-6.671-6.503-11.345-6.503c-4.621,0.021-8.939,2.509-11.271,6.566c-0.021,0.093-48.094,84.001-54.923,95.273     c-7.453,12.295-13.017,27.236-13.017,43.894c0,43.85,35.56,79.421,79.443,79.421c43.842,0,79.388-35.571,79.43-79.421     C432.598,344.554,426.232,329.967,419.456,317.985z M403.469,377.342c-6.752,21.456-26.591,37.099-50.259,37.099     c-29.194,0-52.93-23.734-52.93-52.969c0-10.592,3.189-20.41,8.535-28.691c0.447-0.711,1.355-0.993,2.162-0.742     c0.755,0.291,1.276,1.035,1.211,1.859c-0.062,1.203-0.249,2.197-0.249,3.064h0.021c0.031,29.109,23.609,52.655,52.708,52.718     c13.865,0,26.378-5.478,35.79-14.239c0.596-0.576,1.537-0.639,2.26-0.189C403.416,375.701,403.729,376.569,403.469,377.342z"/></g></svg>