<?xml version="1.0" ?><!DOCTYPE svg  PUBLIC '-//W3C//DTD SVG 1.1//EN'  'http://www.w3.org/Graphics/SVG/1.1/DTD/svg11.dtd'><svg height="512px" id="Layer_5" style="enable-background:new 0 0 512 512;" version="1.1" viewBox="0 0 512 512" width="512px" xml:space="preserve" xmlns="http://www.w3.org/2000/svg" xmlns:xlink="http://www.w3.org/1999/xlink">
<g><path d="M93.688,394.199h320.627c9.834,0,17.824-8.002,17.824-17.856V166.648c0-9.843-7.99-17.824-17.824-17.824    H93.688c-9.852,0-17.833,7.981-17.833,17.824v209.695C75.854,386.196,83.836,394.199,93.688,394.199z M254.002,188.468    c46.227,0,83.705,37.478,83.705,83.706c0,46.227-37.479,83.706-83.705,83.706s-83.707-37.479-83.707-83.706    C170.295,225.946,207.775,188.468,254.002,188.468z"/><polygon points="235.273,329.748 272.711,329.748 272.751,290.913 311.556,290.913 311.556,253.435 272.751,253.435     272.751,214.6 235.273,214.6 235.273,253.435 196.438,253.435 196.438,290.913 235.273,290.913   "/><path d="M208.658,102.018c-0.031,0,0.104-0.126,0.104-0.126h90.456l0.097,0.126v28.288l29.632,0.011l-0.021-28.298    c-0.021-16.373-13.238-29.739-29.707-29.739h-90.456c-16.478,0-29.687,13.366-29.718,29.739l-0.011,28.277l29.624,0.01V102.018z"/></g></svg>