<?xml version="1.0" ?><!DOCTYPE svg  PUBLIC '-//W3C//DTD SVG 1.1//EN'  'http://www.w3.org/Graphics/SVG/1.1/DTD/svg11.dtd'><svg height="512px" id="Layer_5" style="enable-background:new 0 0 512 512;" version="1.1" viewBox="0 0 512 512" width="512px" xml:space="preserve" xmlns="http://www.w3.org/2000/svg" xmlns:xlink="http://www.w3.org/1999/xlink">
<g><path d="M81.656,404.295c0.249,1.156,0.726,2.197,1.013,3.326c7.156,26.809,30.595,44.678,55.953,44.736h210.408    c0.086,0,0.162-0.029,0.257-0.029h3.258c30.366,0,66.465-16.396,73.573-44.955c4.664-18.766,5.437-39.711,5.437-56.957    c-1.701-59.135-24.422-113.502-106.862-131.887c0,0-4.071-1.289-11.064-2.895c-5.025,4.977-10.339,9.488-15.909,13.338    l54.234,106.453c20.591,7.277,32.964,20.465,36.146,38.992c3.249,18.869-7.07,54.129-42.806,54.129c-26.276,0-206.672,0-206.672,0    c-17.036-0.049-34.55-14.486-34.55-37.627c0-7.588,1.863-16.291,6.65-26c1.261-2.59,2.733-5.475,4.29-8.494    c0.526-0.975,1.108-2.064,1.644-3.105c1.127-2.131,2.303-4.318,3.545-6.621c0.669-1.262,1.366-2.531,2.083-3.812    c1.232-2.273,2.523-4.596,3.842-6.977c0.754-1.346,1.509-2.721,2.302-4.107c1.424-2.553,2.876-5.131,4.376-7.748    c0.717-1.262,1.414-2.504,2.15-3.785c2.025-3.525,4.089-7.127,6.191-10.75c0.21-0.371,0.42-0.734,0.641-1.107    c2.417-4.174,4.892-8.408,7.357-12.611l1.424-2.418c1.958-3.307,3.917-6.65,5.866-9.947c0.765-1.27,1.519-2.531,2.275-3.803    c1.681-2.857,3.382-5.666,5.044-8.465c0.803-1.348,1.605-2.693,2.408-4.031c1.538-2.572,3.058-5.094,4.558-7.598    c0.85-1.412,1.719-2.848,2.561-4.242c1.223-2.035,2.408-3.975,3.592-5.953c7.883-13.014,14.61-24.039,19.252-31.598    c-0.687-0.641-1.366-1.318-2.044-2.008c-7.31,1.51-11.829,2.705-11.829,2.705c-6.145,1.348-11.848,2.961-17.352,4.691    c-68.699,21.689-88.526,72.33-90.027,127.281c0,17.15,2.429,35.172,6.641,53.172C81.561,403.818,81.599,404.057,81.656,404.295z"/><path d="M333.686,129.314c0-54.176-35.755-89.652-79.869-89.652c-44.105,0-79.85,35.477-79.85,89.652    c0,36.109,20.161,67.564,43.809,84.59c0.105,0.078,0.211,0.154,0.334,0.23c4.29,3.076,8.705,5.656,13.139,7.701    c7.653,3.535,15.354,5.561,22.568,5.561c0.563,0,1.165-0.125,1.748-0.133c11.084-0.459,23.133-5.293,34.417-13.473    c0.908-0.65,1.815-1.301,2.694-1.988C315.091,194.355,333.686,163.971,333.686,129.314z"/><path d="M253.807,244.213c-6.01-0.096-11.916-1.012-17.705-2.617l54.07,107.971l31.216,62.326    c0,0,9.546-0.059,20.333-0.059c19.97,0,32.085-20.209,27.327-37.416c-4.415-15.977-26.486-29.85-54.683-29.793h-0.039    l-50.736-101.32C260.362,243.83,257.104,244.176,253.807,244.213z"/></g></svg>