<?xml version="1.0" ?><!DOCTYPE svg  PUBLIC '-//W3C//DTD SVG 1.1//EN'  'http://www.w3.org/Graphics/SVG/1.1/DTD/svg11.dtd'><svg height="512px" id="Layer_5" style="enable-background:new 0 0 512 512;" version="1.1" viewBox="0 0 512 512" width="512px" xml:space="preserve" xmlns="http://www.w3.org/2000/svg" xmlns:xlink="http://www.w3.org/1999/xlink">
<g><path d="M195.01,243.583h126.661c4.299,0,7.809-3.481,7.809-7.81c0-4.311-3.51-7.811-7.809-7.811H195.01    c-4.31,0-7.809,3.5-7.809,7.811C187.201,240.102,190.7,243.583,195.01,243.583z"/><path d="M187.201,204.962c0,4.307,3.5,7.808,7.809,7.808h126.661c4.299,0,7.809-3.501,7.809-7.808    c0-4.33-3.51-7.8-7.809-7.8H195.01C190.7,197.162,187.201,200.632,187.201,204.962z"/><path d="M195.01,274.385h126.661c4.299,0,7.809-3.5,7.809-7.79c0-4.311-3.51-7.83-7.809-7.83H195.01    c-4.31,0-7.809,3.52-7.809,7.83C187.201,270.885,190.7,274.385,195.01,274.385z"/><path d="M205.268,161.76h106.154c2.806,0,5.446-1.079,7.424-3.104c2.005-1.957,3.094-4.608,3.094-7.425v-49.919    c0-0.463-0.126-0.897-0.135-1.35c-0.752-16.051-13.845-28.846-30.08-28.846h-0.316c-0.348-6.284-2.45-12.061-5.775-16.968    c-5.938-8.753-15.869-14.527-27.283-14.558c-11.425,0.03-21.374,5.805-27.322,14.558c-3.316,4.907-5.418,10.684-5.755,16.968    h-0.319c-16.234,0-29.336,12.795-30.087,28.846c-0.01,0.452-0.136,0.887-0.136,1.35v49.919c0,2.816,1.09,5.468,3.095,7.454    C199.792,160.681,202.452,161.76,205.268,161.76z M246.472,71.117c0.896-5.861,5.736-10.468,11.877-10.468    c6.122,0,10.97,4.587,11.84,10.468c0.086,0.579,0.347,1.12,0.347,1.727c0,6.729-5.43,12.167-12.187,12.196    c-6.749-0.029-12.196-5.496-12.225-12.196C246.125,72.237,246.396,71.696,246.472,71.117z M215.795,101.312    c0-0.472,0.202-0.897,0.271-1.35c0.674-4.396,4.26-7.81,8.888-7.81h6.431c2.227,3.105,5.12,5.631,8.243,7.81    c5.36,3.713,11.704,6.094,18.723,6.094c6.998-0.009,13.332-2.381,18.693-6.094c3.123-2.179,6.006-4.704,8.243-7.81h6.438    c4.618,0,8.225,3.414,8.88,7.81c0.087,0.452,0.279,0.878,0.279,1.35v39.411h-85.089V101.312z"/><path d="M195.01,289.589c-4.319,0-7.79,3.517-7.79,7.808c0,4.299,3.471,7.797,7.79,7.797h69.395    c4.3,0,7.771-3.498,7.771-7.797c0-4.291-3.471-7.808-7.771-7.808H195.01z"/><path d="M177.753,140.127v-38.834c0-0.452,0.115-0.878,0.135-1.33h-57.16c-2.777,0-5.496,1.119-7.443,3.105    c-1.976,1.927-3.085,4.646-3.085,7.423v318.443c0,2.824,1.089,5.446,3.085,7.47c1.977,1.961,4.627,3.058,7.443,3.058h275.234    c2.796,0,5.447-1.097,7.423-3.058c2.016-2.023,3.076-4.663,3.076-7.47V110.491c0-2.816-1.061-5.428-3.076-7.423    c-1.976-2.016-4.627-3.105-7.423-3.105h-57.18c0,0.462,0.135,0.908,0.135,1.35l-0.028,38.814h25.49V395.52l-212.069,0.356V140.127    H177.753z"/></g></svg>