<?xml version="1.0" ?><!DOCTYPE svg  PUBLIC '-//W3C//DTD SVG 1.1//EN'  'http://www.w3.org/Graphics/SVG/1.1/DTD/svg11.dtd'><svg height="512px" id="icon_design" style="enable-background:new 0 0 512 512;" version="1.1" viewBox="0 0 512 512" width="512px" xml:space="preserve" xmlns="http://www.w3.org/2000/svg" xmlns:xlink="http://www.w3.org/1999/xlink">
<g><path d="M390.257,341.613l0.046-0.028l-76.36-132.271V102.203h0.324c6.366,0,11.53-5.173,11.53-11.558     c0-6.385-5.164-11.549-11.53-11.549H197.328c-6.404,0-11.566,5.164-11.566,11.549c0,6.385,5.162,11.558,11.566,11.558h0.611     v107.083l-76.398,132.299c-6.662,11.549-10.217,23.079-10.244,34.202c-0.111,13.565,5.82,26.363,16.305,34.636     c10.429,8.375,24.531,12.446,40.855,12.465h174.959c16.304-0.019,30.389-4.091,40.809-12.465     c10.493-8.273,16.416-21.07,16.304-34.636c-0.026-11.124-3.59-22.671-10.196-34.174H390.257z M217.112,274.784     c0,0-36.237,64.303-49.118,85.068c-8.143,13.14-2.888,29.603,8.578,39.958h-8.115c-25.438-0.945-33.601-10.208-34.091-24.022     c0-6.034,2.026-13.816,7.144-22.653l79.508-137.694l-0.028-113.236h69.894v113.265l34.229,59.316H217.112z"/></g></svg>