<svg height="512" viewBox="0 0 512 512" width="512" xmlns="http://www.w3.org/2000/svg">
    <path d="m437.02 74.98c-48.353-48.351-112.64-74.98-181.02-74.98s-132.667 26.629-181.02 74.98c-48.351 48.353-74.98 112.64-74.98 181.02s26.629 132.667 74.98 181.02c48.353 48.351 112.64 74.98 181.02 74.98s132.667-26.629 181.02-74.98c48.351-48.353 74.98-112.64 74.98-181.02s-26.629-132.667-74.98-181.02zm-181.02 397.02c-119.103 0-216-96.897-216-216s96.897-216 216-216 216 96.897 216 216-96.897 216-216 216zm-20-316c0 44.709-20.959 74.925-42.916 100.633 22.005 25.826 42.916 56.24 42.916 101.367h-40c0-29.659-12.59-50.365-29.5-70.846-16.91 20.481-29.5 41.187-29.5 70.846h-40c0-45.127 20.911-75.541 42.916-101.367-21.957-25.708-42.916-55.924-42.916-100.633h40c0 29.23 12.609 49.74 29.5 70.125 16.891-20.385 29.5-40.895 29.5-70.125zm135.084 100.633c22.005 25.826 42.916 56.24 42.916 101.367h-40c0-29.659-12.59-50.365-29.5-70.846-16.91 20.481-29.5 41.187-29.5 70.846h-40c0-45.127 20.911-75.541 42.916-101.367-21.957-25.708-42.916-55.924-42.916-100.633h40c0 29.23 12.609 49.74 29.5 70.125 16.891-20.385 29.5-40.895 29.5-70.125h40c0 44.709-20.959 74.925-42.916 100.633z"/>
</svg>