<?xml version="1.0" ?><!DOCTYPE svg  PUBLIC '-//W3C//DTD SVG 1.1//EN'  'http://www.w3.org/Graphics/SVG/1.1/DTD/svg11.dtd'><svg height="512px" id="icon_design" style="enable-background:new 0 0 512 512;" version="1.1" viewBox="0 0 512 512" width="512px" xml:space="preserve" xmlns="http://www.w3.org/2000/svg" xmlns:xlink="http://www.w3.org/1999/xlink">
<g><path d="M292.654,274.751l-4.425,16.226l-17.218-73.511c-1.061-4.493-5.023-7.712-9.65-7.829     c-4.598-0.135-8.764,2.864-10.045,7.318l-13.951,47.596l-5.273-9.226c-1.774-3.085-5.051-5.052-8.628-5.12     c-3.567-0.077-6.932,1.726-8.821,4.782l-8.233,13.054l-34.929,0.029v20.332h40.598c3.48,0,6.729-1.803,8.609-4.743l2.15-3.461     l8.764,15.251c1.996,3.538,5.967,5.544,10.016,5.052c4.059-0.491,7.424-3.335,8.581-7.25l9.795-33.473l17.595,74.909     c1.041,4.56,5.051,7.771,9.727,7.847h0.183c4.618,0,8.61-3.056,9.814-7.51l12.909-47.461l28.643,0.028v-20.322l-36.384-0.039     C297.879,267.232,293.85,270.317,292.654,274.751z"/><path d="M401.382,103.812c-1.976-2.006-4.627-3.085-7.423-3.085h-57.199c0.009,0.463,0.125,0.887,0.125,1.35v38.814     h25.5v255.394l-212.078,0.337V140.89h25.471v-38.871c0-0.444,0.116-0.859,0.125-1.292h-57.179c-2.777,0-5.486,1.109-7.443,3.085     c-1.976,1.947-3.085,4.656-3.085,7.433v318.443c0,2.834,1.089,5.457,3.085,7.462c1.977,1.976,4.627,3.057,7.443,3.057h275.234     c2.795,0,5.447-1.081,7.423-3.057c2.016-2.005,3.076-4.656,3.076-7.462V111.245C404.458,108.439,403.398,105.816,401.382,103.812     z"/><path d="M203.265,162.514h106.164c2.796,0,5.447-1.09,7.423-3.095c1.996-1.977,3.085-4.627,3.085-7.423v-49.92     c0-0.462-0.116-0.887-0.135-1.35c-0.742-16.052-13.834-28.845-30.079-28.845h-0.318c-0.328-6.286-2.449-12.08-5.775-16.967     c-5.939-8.754-15.869-14.548-27.283-14.558c-11.424,0.01-21.364,5.804-27.322,14.558c-3.316,4.887-5.418,10.672-5.755,16.967     h-0.318c-16.235,0-29.327,12.793-30.088,28.845c-0.01,0.463-0.135,0.887-0.135,1.35v49.92c0,2.796,1.089,5.447,3.095,7.452     C197.798,161.424,200.45,162.514,203.265,162.514z M244.47,71.881c0.906-5.871,5.737-10.479,11.877-10.479     c6.122,0,10.971,4.589,11.839,10.479c0.097,0.579,0.347,1.109,0.347,1.716c0,6.739-5.428,12.157-12.186,12.186     c-6.749-0.029-12.196-5.476-12.225-12.186C244.123,72.99,244.393,72.46,244.47,71.881z M213.793,102.076     c0-0.482,0.203-0.887,0.27-1.35c0.674-4.406,4.261-7.828,8.888-7.828h6.431c2.246,3.114,5.119,5.64,8.262,7.828     c5.341,3.722,11.694,6.084,18.703,6.084c6.999-0.02,13.333-2.372,18.674-6.084c3.143-2.188,6.025-4.724,8.262-7.828h6.44     c4.617,0,8.223,3.422,8.898,7.828c0.067,0.463,0.26,0.868,0.26,1.35v39.393h-85.089V102.076z"/></g></svg>