<?xml version="1.0" ?><!DOCTYPE svg  PUBLIC '-//W3C//DTD SVG 1.1//EN'  'http://www.w3.org/Graphics/SVG/1.1/DTD/svg11.dtd'><svg height="512px" id="Layer_5" style="enable-background:new 0 0 512 512;" version="1.1" viewBox="0 0 512 512" width="512px" xml:space="preserve" xmlns="http://www.w3.org/2000/svg" xmlns:xlink="http://www.w3.org/1999/xlink">
<g><path d="M237.879,128.206c20.881,0,37.842-16.962,37.842-37.862c0-20.891-16.961-37.862-37.842-37.862    c-20.921,0-37.884,16.971-37.884,37.862C199.996,111.244,216.958,128.206,237.879,128.206z"/><path d="M169.355,214.532c-37.463,24.635-62.181,66.978-62.202,115.163c0,76.146,61.711,137.867,137.856,137.867    c49.73,0,93.169-26.426,117.426-65.896c-2.732-4.193-5.463-8.428-8.104-12.716c-3.631-5.903-7.15-11.774-10.475-17.413    c-16.308,38.488-54.406,65.467-98.848,65.547c-59.295-0.111-107.287-48.082-107.389-107.389    c-0.011-31.622,13.729-59.981,35.479-79.645C171.31,238.472,170.02,226.418,169.355,214.532z"/><path d="M212.498,306.062c13.31,14.322,36.461,15.725,36.461,15.725c14.917,1.27,58.079,0.512,91.727,0.594    c0,0,64.564,122.47,81.332,109.938c16.799-12.544-35.254-121.887-43.02-138.409c-5.656-11.958-16.113-17.822-22.957-19.847    c-11.447-3.416-49.096-1.585-63.07-1.585c-14.016,0-20.768,0.758-28.871-7.345c-3.877-3.897-5.902-15.469-7.253-29.524    c38.036,2.2,98.019,4.144,97.793-5.454c-0.225-10.25-60.269-24.4-100.31-30.538c-0.275-4.265-0.573-8.44-0.91-12.358    c-2.435-27.694-8.256-48.514-29.627-48.42c-18.272,0.072-29.648,13.801-32.533,37.587    C186.052,219.473,199.177,291.71,212.498,306.062z"/></g></svg>