<?xml version="1.0" ?><!DOCTYPE svg  PUBLIC '-//W3C//DTD SVG 1.1//EN'  'http://www.w3.org/Graphics/SVG/1.1/DTD/svg11.dtd'><svg height="512px" id="Layer_5" style="enable-background:new 0 0 512 512;" version="1.1" viewBox="0 0 512 512" width="512px" xml:space="preserve" xmlns="http://www.w3.org/2000/svg" xmlns:xlink="http://www.w3.org/1999/xlink">
<g><path d="M262.911,230.761c-5.055,3.391-10.147,6.813-15.387,10.264c-3.8,2.498-7.609,4.985-11.431,7.543    c-1.242,0.835-2.575,1.69-3.828,2.536c-2.838,1.887-5.724,3.791-8.622,5.686c-4.986,3.266-9.981,6.639-15.065,10.04    c-4.947,3.316-9.816,6.756-14.715,10.294c-9.544,6.881-18.953,14.151-27.632,22.49c-21.559,20.382-39.103,49.346-38.812,86.009    v0.563c0.582,34.612,20.916,61.554,41.376,83.336c4.706,4.918,10.983,7.376,17.281,7.396c5.96,0,11.928-2.225,16.583-6.667    c8.076-7.727,9.477-19.73,4.209-29.032l20.09-5.482l78.514-21.47l16.758-4.588c0.535,8.845,6.386,16.854,15.357,19.614    c2.138,0.671,4.314,0.991,6.442,0.991c9.351,0,18.013-6.056,20.928-15.463c4.16-13.667,4.44-24.834,4.479-28.567v-0.058    l0.02-0.573c-1.079-41.912-30.626-73.083-56.354-96.875c-2.032-1.818-4.034-3.488-6.046-5.209    c-5.016,3.45-9.963,6.727-14.763,9.875c-2.927,1.906-5.601,3.722-8.39,5.56c-3.274,2.138-6.657,4.334-9.689,6.395    c-1.798,1.195-3.558,2.352-5.337,3.528c7.729,6.084,15.813,13.063,23.59,20.713l-22.879,2.118l-39.706,3.674l-34.445,3.179    c1.399-1.497,2.516-2.983,4.053-4.511c9.749-9.486,22.579-18.613,36.516-27.962c5.007-3.364,10.099-6.785,15.368-10.244    c3.81-2.507,7.592-4.977,11.449-7.562c1.234-0.837,2.585-1.701,3.839-2.538c2.789-1.865,5.667-3.751,8.582-5.666    c4.938-3.236,9.954-6.618,15.075-10.049c4.898-3.287,9.768-6.746,14.666-10.323c9.186-6.649,18.303-13.705,26.788-21.812    c21.743-20.488,39.958-49.57,39.733-86.621v-0.058c-0.777-37.509-24.221-65.967-46.635-88.652    c-9.408-9.292-24.569-9.205-33.862,0.232c-9.282,9.408-9.165,24.571,0.243,33.863c0.145,0.146,0.281,0.301,0.438,0.438    l-21.363,5.852l-79.264,21.674l-16.951,4.635c0.816-11.341-7.191-21.578-18.643-23.21c-11.944-1.75-23.045,6.572-24.756,18.545    l-0.02-0.029c-1.205,8.339-1.545,15.182-1.545,20.265c0,3.762,0.205,6.492,0.37,8.067c1.786,41.104,30.879,71.741,56.256,95.243    c2.022,1.807,4.016,3.47,6.018,5.171c4.985-3.402,9.942-6.707,14.763-9.865c2.906-1.896,5.617-3.714,8.429-5.56    c3.255-2.129,6.607-4.305,9.699-6.395c1.788-1.187,3.557-2.364,5.337-3.53c-7.126-5.607-14.562-11.925-21.802-18.885l23.083-2.158    l34.613-3.236l35.532-3.313c-0.952,0.992-1.847,1.972-2.855,2.964C288.822,212.817,276.285,221.77,262.911,230.761z     M324.116,375.407c0.952,3.257,1.534,6.346,1.564,9.126c-0.03,0.447-0.039,0.942-0.039,1.477c0.019,0.234-0.039,1.818-0.233,3.869    l-17.934,4.189l-94.881,22.238l-22.006,5.142c-4.395-5.89-7.961-11.731-10.555-17.214l21.021-4.207l106.217-21.249    L324.116,375.407z M204.078,360.002l82.607-11.946l20.207-2.925c3.653,4.537,6.853,9.087,9.534,13.539l-18.446,2.974    l-101.425,16.339l-20.79,3.354c0.447-6.522,1.711-12.383,3.664-17.769L204.078,360.002z M175.114,162.578    c-1.292-4.094-1.973-7.922-1.856-11.275l-0.186-2.555l16.972-4.016l96.825-22.878l21.947-5.18    c4.393,5.995,7.99,11.916,10.516,17.455l-21.09,4.171l-106.178,20.935L175.114,162.578z M292.722,179.267l-79.41,10.691    l-20.557,2.779c-3.527-4.296-6.667-8.621-9.329-12.869l18.562-3.022l100.062-16.251l21.201-3.451    c-0.594,6.794-2.14,12.907-4.56,18.613L292.722,179.267z"/></g></svg>