<?xml version="1.0" ?><!DOCTYPE svg  PUBLIC '-//W3C//DTD SVG 1.1//EN'  'http://www.w3.org/Graphics/SVG/1.1/DTD/svg11.dtd'><svg height="512px" id="icon_design" style="enable-background:new 0 0 512 512;" version="1.1" viewBox="0 0 512 512" width="512px" xml:space="preserve" xmlns="http://www.w3.org/2000/svg" xmlns:xlink="http://www.w3.org/1999/xlink">
<g><path d="M181.292,288.302c0,21.818,17.693,39.521,39.511,39.521c21.838,0,39.551-17.702,39.551-39.521     c0,0,0,0,0-0.03h-39.233v-39.49c-0.11,0-0.209-0.031-0.318-0.031C198.985,248.75,181.292,266.482,181.292,288.302z"/><path d="M51.227,279.842c-3.789,5.018-3.789,11.892,0,16.909c1.081,1.092,64.701,85.835,177.204,86.29     c112.324-0.515,184.185-84.674,185.345-85.605c4.542-5.266,4.542-13.061,0-18.268c-1.16-0.963-73.021-85.121-185.345-85.647     C115.928,194.018,52.308,278.751,51.227,279.842z M142.456,334.229c-10.473-5.296-19.993-11.077-28.254-16.938     c-13.398-9.521-23.742-19.042-30.645-26.122c-0.981-1.012-1.894-1.964-2.728-2.866c0.833-0.901,1.747-1.855,2.728-2.866     c11.247-11.563,31.388-29.266,58.919-43.121c-7.944,13.508-12.585,29.188-12.585,46.017     C129.911,305.072,134.532,320.722,142.456,334.229z M292.387,232.388c21.184,7.199,39.789,17.106,55.032,27.164     c14.548,9.601,26.003,19.229,33.748,26.398c0.893,0.824,1.736,1.607,2.51,2.352c-0.773,0.734-1.617,1.527-2.51,2.341     c-15.927,14.807-47.325,39.521-88.859,53.671c12.099-15.459,19.397-34.848,19.419-55.982     C311.705,267.188,304.456,247.829,292.387,232.388z M283.8,288.331c-0.071,34.71-28.246,62.856-63.006,62.916     c-34.741-0.06-62.916-28.206-62.975-62.916c0.059-34.81,28.234-62.955,62.975-63.005     C255.554,225.376,283.729,253.521,283.8,288.331z"/><path d="M284.206,63.436l-63.521-0.268c-7.716-0.029-13.974,6.188-14.023,13.903     c-0.02,7.696,6.208,13.965,13.944,14.023l-0.041-0.03l30.012,0.13l-42.734,42.714c-5.455,5.484-5.455,14.321,0,19.775     c2.707,2.727,6.297,4.086,9.868,4.086s7.15-1.359,9.858-4.086l42.744-42.734l0.109,29.971c0,7.715,6.298,13.963,14.013,13.934     c7.696-0.029,13.924-6.297,13.924-13.994l-0.277-63.509C298.06,69.684,291.871,63.466,284.206,63.436z"/><path d="M450.836,108.787l-63.53-0.268c-7.704-0.029-13.992,6.188-14.013,13.905     c-0.029,7.725,6.188,13.992,13.924,14.022h-0.029l30,0.109l-42.744,42.703c-5.453,5.455-5.453,14.321,0,19.776     c2.738,2.727,6.317,4.085,9.888,4.085c3.59,0,7.159-1.358,9.888-4.085l42.715-42.705l0.117,29.94     c0,7.716,6.278,13.935,13.994,13.935c7.706-0.021,13.934-6.298,13.934-14.013l-0.248-63.492     C464.682,115.006,458.504,108.817,450.836,108.787z"/><path d="M165.554,423.98c-8.976-2.459-17.386-5.295-25.16-8.32c-7.201-2.776-15.273,0.765-18.07,7.964     c-2.796,7.18,0.753,15.253,7.954,18.029v0.06c8.617,3.353,17.93,6.457,27.828,9.214c1.24,0.327,2.499,0.485,3.729,0.485     c6.129,0,11.752-4.057,13.478-10.225C177.346,433.739,173.002,426.023,165.554,423.98z"/><path d="M326.859,416.672c-7.992,3.054-16.394,5.84-25.229,8.241c-7.447,2.013-11.821,9.699-9.809,17.147     c1.697,6.199,7.31,10.284,13.449,10.284c1.219,0,2.459-0.159,3.698-0.496c9.778-2.638,19.062-5.752,27.858-9.104     c7.2-2.757,10.8-10.829,8.042-18.029C342.103,417.516,334.03,413.885,326.859,416.672z"/><path d="M246.936,433.442c-3.183,0.139-6.356,0.168-9.6,0.168c-5.772,0-11.416-0.14-16.909-0.465     c-7.706-0.497-14.321,5.374-14.797,13.06c-0.476,7.667,5.376,14.322,13.091,14.787c6.07,0.377,12.278,0.575,18.615,0.575     c3.6,0,7.17-0.089,10.721-0.198c7.715-0.356,13.686-6.812,13.389-14.538C261.147,439.114,254.622,433.115,246.936,433.442z"/><path d="M75.733,378.738c-3.402-2.787-4.781-4.176-4.8-4.146c-5.554-5.375-14.39-5.217-19.735,0.356     c-5.376,5.505-5.217,14.341,0.317,19.717c0.476,0.455,8.727,8.398,24.04,18.654c2.38,1.605,5.088,2.37,7.755,2.37     c4.503,0,8.926-2.153,11.634-6.169c4.294-6.427,2.579-15.075-3.818-19.418C84.291,385.552,79.124,381.544,75.733,378.738z"/><path d="M398.87,376.607c-5.852,4.45-13.21,9.688-21.967,15.112c-6.546,4.086-8.569,12.684-4.473,19.229     c2.628,4.245,7.199,6.596,11.882,6.596c2.508,0,5.057-0.686,7.357-2.073v-0.06c9.551-5.94,17.644-11.643,24.109-16.552     c6.129-4.69,7.319-13.438,2.658-19.576C413.766,373.115,404.989,371.915,398.87,376.607z"/></g></svg>