<?xml version="1.0" ?><!DOCTYPE svg  PUBLIC '-//W3C//DTD SVG 1.1//EN'  'http://www.w3.org/Graphics/SVG/1.1/DTD/svg11.dtd'><svg height="512px" id="icon_design" style="enable-background:new 0 0 512 512;" version="1.1" viewBox="0 0 512 512" width="512px" xml:space="preserve" xmlns="http://www.w3.org/2000/svg" xmlns:xlink="http://www.w3.org/1999/xlink">
<g><path class="st1" d="M256.253,58.348c-107.021,0-193.707,86.73-193.707,193.651c0,106.944,86.685,193.641,193.707,193.674     C363.175,445.64,449.871,358.943,449.904,252C449.871,145.078,363.208,58.348,256.253,58.348z M256.253,416.261     C165.491,416.106,92.103,342.717,91.948,252c0.155-90.717,73.543-164.117,164.305-164.283     C346.97,87.882,420.348,161.282,420.491,252C420.348,342.717,346.97,416.106,256.253,416.261z"/><polygon class="st1" points="289.632,149.44 222.885,149.44 222.885,218.632 153.704,218.632 153.704,285.39 222.885,285.39      222.885,354.559 289.554,354.559 289.632,285.39 358.746,285.39 358.746,218.632 289.632,218.632    "/></g></svg>