<?xml version="1.0" ?><!DOCTYPE svg  PUBLIC '-//W3C//DTD SVG 1.1//EN'  'http://www.w3.org/Graphics/SVG/1.1/DTD/svg11.dtd'><svg height="512px" id="icon_design" style="enable-background:new 0 0 512 512;" version="1.1" viewBox="0 0 512 512" width="512px" xml:space="preserve" xmlns="http://www.w3.org/2000/svg" xmlns:xlink="http://www.w3.org/1999/xlink">
<g><path d="M169.396,355.677v18.552c0,0.941,0.35,1.852,1.001,2.512c0.661,0.662,1.582,1.041,2.503,1.041h166.878     c0.921,0,1.822-0.379,2.463-1.041c0.69-0.69,1.051-1.541,1.051-2.512v-18.552c-0.591-15.497-18.571-28.581-37.592-39.505     c-19.412-10.692-39.795-18.261-49.136-18.421c-9.15,0.14-29.753,6.688-49.286,16.899     C188.117,325.003,169.836,338.468,169.396,355.677z"/><path d="M243.63,239.686c1.091,8.891,6.027,14.647,12.624,14.647h0.34c7.138,0.109,11.604-6.308,12.404-14.757     c1.171-17.7,21.474-34.909,33.598-44.601c9.671-7.819,17.68-13.325,24.869-21.864c0.95-1.202,1.101-2.833,0.3-4.125     c-0.811-1.292-2.353-1.922-3.814-1.572c-20.554,4.955-38.664,8.259-68.127,8.259c-28.922,0-45.551-3.794-67.396-7.929     c-1.432-0.271-2.883,0.39-3.645,1.622c-0.771,1.242-0.68,2.843,0.221,3.995c6.047,7.708,16.148,15.117,26.32,23.486     C218.771,202.713,241.607,221.985,243.63,239.686z"/><path d="M161.066,274.404c-18.23,14.507-38.124,36.532-38.063,69.819c0,44.712,0,66.235,0,66.235     c0,3.283,1.352,6.497,3.674,8.84c2.323,2.312,5.516,3.635,8.82,3.635h241.683c3.344,0,6.487-1.292,8.81-3.635     c2.383-2.372,3.665-5.506,3.665-8.84c0,0,0-20.644,0-66.235c0.06-35.63-22.646-57.706-41.788-72.101     c-9.671-7.359-18.931-13.355-24.878-18.401c-3.003-2.474-5.096-4.676-6.117-6.167c-1.001-1.562-0.92-1.922-0.941-1.982     c-0.16-0.19,1.012-3.745,7.389-9.271c17.56-16.989,65.293-39.184,66.335-89.231V99.197c0-3.304-1.332-6.498-3.665-8.841     c-2.292-2.312-5.516-3.664-8.81-3.664H135.498c-3.304,0-6.497,1.352-8.82,3.664c-2.322,2.313-3.674,5.537-3.674,8.841v47.873     c0.18,33.208,22.545,54.892,41.457,70.31c9.611,7.799,18.862,14.437,24.948,19.883c3.043,2.673,5.266,5.096,6.347,6.718     c1.102,1.592,0.812,1.682,0.991,1.682C196.707,248.576,179.167,260.669,161.066,274.404z M205.977,218.622     c-23.617-19.963-59.047-41.017-58.006-71.552v-35.41h216.715v35.41c0.18,20.434-14.136,35.711-32.176,50.137     c-8.831,7.098-18.07,13.565-25.89,20.534c-7.458,6.968-15.277,14.926-15.637,27.832c0.33,13.024,8.509,20.903,15.998,27.291     c24.057,19.272,58.306,35.761,57.705,71.361v53.762H147.971v-53.762c0.031-24.067,14.347-39.185,32.006-53     c8.74-6.768,17.871-12.695,25.649-19.021c7.328-6.307,15.567-13.466,16.078-26.54     C221.165,232.747,213.315,225.479,205.977,218.622z"/></g></svg>