<?xml version="1.0"?>
<svg version="1.1" id="Capa_1" xmlns="http://www.w3.org/2000/svg" viewBox="0 0 512 512">
    <path d="M196.851,473.369v6.623c0,6.204,3.818,11.768,9.607,13.997l44.149,17.008c1.735,0.669,3.564,1.003,5.393,1.003
		c1.828,0,3.657-0.334,5.393-1.003l44.149-17.008c5.789-2.229,9.607-7.793,9.607-13.997v-74.054L196.851,473.369z"/>
    <polygon points="196.851,402.682 196.851,438.838 315.149,371.407 315.149,335.25"/>
    <path d="M441.871,21.175C419.517,3.07,390.558-3.883,362.421,2.096l-29.034,6.17c-51.351,10.913-103.421,10.913-154.772,0
		l-29.034-6.17c-28.133-5.98-57.097,0.974-79.451,19.078C47.773,39.28,34.952,66.162,34.953,94.93
		c0.002,34.271,0.003,61.778,0.005,83.887c146.753,20.971,295.372,20.827,442.085-0.427c0.002-22.036,0.004-49.408,0.005-83.46
		C477.049,66.162,464.227,39.28,441.871,21.175z"/>
    <path d="M254.514,224.453c-73.333,0-146.662-5.108-219.554-15.323c0.001,13.642,0.003,24.19,0.004,32.336
		c0.004,23.558,17.663,43.298,41.075,45.917l88.98,9.955c10.587,1.184,21.201,2.149,31.831,2.918v67.895l118.299-67.895
		c0.313-0.023,15.681-1.254,23.037-1.996c2.933-0.296,5.866-0.594,8.794-0.922l88.98-9.955
		c23.412-2.619,41.072-22.358,41.076-45.917c0.001-8.228,0.002-18.912,0.004-32.754
		C403.178,219.205,328.844,224.453,254.514,224.453z"/>
</svg>
