<?xml version="1.0" ?><!DOCTYPE svg  PUBLIC '-//W3C//DTD SVG 1.1//EN'  'http://www.w3.org/Graphics/SVG/1.1/DTD/svg11.dtd'><svg height="512px" id="Layer_5" style="enable-background:new 0 0 512 512;" version="1.1" viewBox="0 0 512 512" width="512px" xml:space="preserve" xmlns="http://www.w3.org/2000/svg" xmlns:xlink="http://www.w3.org/1999/xlink">
<g><path d="M315.506,142.541l41.342-41.441l47.052,47.064l-41.417,41.396l17.699,17.721l41.407-41.463l13.522,13.489    c6.54,6.607,17.19,6.618,23.775,0.022c6.585-6.596,6.629-17.29,0.044-23.896L350.131,46.623    c-6.563-6.562-17.324-6.54-23.908,0.034c-6.562,6.628-6.518,17.278,0.022,23.852l12.949,12.97l-41.386,41.363L315.506,142.541z"/><path d="M73.028,452.775c5.591-5.591,83.932-84.009,83.932-84.009s37.982,17.08,46.521,20.45    c8.462,3.326,17.069,2.497,22.284-2.696c5.204-5.225,129.071-129.193,129.071-129.193l32.536,32.47    c6.563,6.562,17.169,6.562,23.743-0.022c6.618-6.562,6.584-17.212,0.021-23.774l-44.843-44.822l0.155-0.154l-17.72-17.732    l-0.166,0.167l-46.964-46.976l0.177-0.176l-17.709-17.731l-0.166,0.176l-44.281-44.279c-6.64-6.584-17.29-6.584-23.852-0.033    c-6.606,6.584-6.606,17.224,0.044,23.797l31.951,31.949c0,0-125.15,125.494-129.083,129.426    c-5.646,5.624-6.806,13.954-3.424,21.488c3.369,7.568,18.924,45.981,18.924,45.981l-59.216,59.294    c0-0.011-9.048,37.153-9.932,41.827C64.146,452.886,67.438,458.364,73.028,452.775z M201.603,256.145l33.442,33.442l25.996-25.929    l-33.453-33.497l16.793-16.827l33.475,33.465l33.231-33.255l26.073,26.062l-119.89,120.09l-26.062-26.073l27.033-27.255    l-33.431-33.431L201.603,256.145z"/></g></svg>