<?xml version="1.0" ?><!DOCTYPE svg  PUBLIC '-//W3C//DTD SVG 1.1//EN'  'http://www.w3.org/Graphics/SVG/1.1/DTD/svg11.dtd'><svg height="512px" id="Layer_5" style="enable-background:new 0 0 512 512;" version="1.1" viewBox="0 0 512 512" width="512px" xml:space="preserve" xmlns="http://www.w3.org/2000/svg" xmlns:xlink="http://www.w3.org/1999/xlink">
<g><path d="M240.525,317.966c3.357-7.273,5.803-14.016,6.139-18.814c0.246-2.568,0.338-5.391,0.338-8.42    c0-5.688-0.338-12.379-0.51-19.58c-67.881,80.514-80.484,154.365-80.689,155.688l-2.045,12.264l12.348,1.475    c0.357,0.031,7.766,0.92,19.131,0.92c26.303-0.285,75.205-3.938,104.996-39.355c16.398-20.318,28.471-46.682,37.074-70.816    c-10.016,4.277-18.762,7.48-24.645,11.326c-2.588,1.473-5.434,3.938-8.357,6.793c-6.406,13.986-13.955,27.234-22.479,37.598    c-20.225,25.473-62.65,30.936-86.59,30.67c-1.012,0-1.975-0.021-2.875-0.021c0.227-0.898,0.512-1.811,0.789-2.783    C198.92,395.163,212.311,359.03,240.525,317.966z"/><path d="M382.547,273.983c23.131-35.561,71.797-110.549,71.797-110.549c18.26-28.125,10.303-65.773-17.861-84.074    c-28.166-18.273-65.805-10.262-84.064,17.861c0,0-47.91,73.773-71.797,110.561c-9.986,15.367-13.873,29.354-15.338,42.457    c-1.4,12.635-0.613,24.451-0.367,35.734c0.123,5.025,0.143,9.986-0.307,14.824v0.031c-2.445,27.141-31.367,54.998-14.711,65.832    c16.654,10.824,30.047-25.432,53.566-39.469c3.795-2.271,7.939-4.234,12.215-6.168c9.229-4.133,19.232-8.043,29.311-13.361    C358.32,300.604,371.578,290.927,382.547,273.983z M355.426,128.782c2.537-3.887,7.713-5.002,11.621-2.455l52.523,34.088    c3.918,2.559,5.012,7.734,2.477,11.613c-1.607,2.475-4.328,3.846-7.061,3.846c-1.574,0-3.15-0.439-4.553-1.35L357.9,140.394    C354.023,137.878,352.867,132.683,355.426,128.782z M333.205,163.015c2.525-3.908,7.732-4.994,11.611-2.477l52.533,34.107    c3.908,2.539,5.033,7.736,2.506,11.623c-1.637,2.486-4.338,3.838-7.068,3.838c-1.576,0-3.152-0.432-4.553-1.361l-52.555-34.129    C331.762,172.089,330.668,166.892,333.205,163.015z M310.973,197.204c2.508-3.877,7.734-4.971,11.623-2.443l52.504,34.117    c3.906,2.537,5.031,7.734,2.494,11.611c-1.625,2.496-4.295,3.848-7.059,3.848c-1.574,0-3.15-0.441-4.562-1.371l-52.523-34.109    C309.572,206.329,308.447,201.124,310.973,197.204z M319.506,273.933l-10.189,15.674c-2.926,4.471-8.941,5.758-13.422,2.834    c-4.502-2.906-5.77-8.943-2.865-13.434l10.18-15.682c2.732-4.154,8.072-5.404,12.439-3.234c0.338,0.164,0.707,0.195,1.014,0.41    c0.307,0.203,0.5,0.541,0.787,0.787C321.164,264.366,322.176,269.771,319.506,273.933z"/><path d="M57.523,441.774h76.883c6.559,0,11.896-5.332,11.896-11.867c0-6.6-5.338-11.93-11.896-11.93H57.523    c-6.557,0-11.908,5.33-11.908,11.93C45.615,436.442,50.967,441.774,57.523,441.774z"/></g></svg>