<?xml version="1.0" ?><!DOCTYPE svg  PUBLIC '-//W3C//DTD SVG 1.1//EN'  'http://www.w3.org/Graphics/SVG/1.1/DTD/svg11.dtd'><svg height="512px" id="Layer_5" style="enable-background:new 0 0 512 512;" version="1.1" viewBox="0 0 512 512" width="512px" xml:space="preserve" xmlns="http://www.w3.org/2000/svg" xmlns:xlink="http://www.w3.org/1999/xlink">
<g><path d="M320.954,172.009c3.406,0,6.588-1.318,9.002-3.742c2.424-2.385,3.744-5.598,3.744-9.004V69.87    c0-3.367-1.371-6.65-3.744-9.016c-2.352-2.393-5.668-3.742-9.002-3.742H196.069c-3.334,0-6.607,1.35-9.002,3.742    c-2.363,2.365-3.734,5.648-3.734,9.016v89.393c0,3.365,1.371,6.639,3.734,9.004c2.395,2.393,5.668,3.742,9.002,3.742H320.954z"/><path d="M139.495,286.519c0,29.26,0,149.867,0,149.867c0,3.346,1.352,6.641,3.744,9.002    c2.365,2.363,5.639,3.756,9.014,3.756h212.549c3.396,0,6.568-1.32,9.002-3.756c2.426-2.395,3.744-5.596,3.744-9.002    c0,0,0-119.471,0-149.867c0.041-30.107-21.125-46.057-36.246-57.373c-16.195-12.398-26.18-20.275-26.139-36.152v-2.979h-25.494    v2.979c0.02,12.379,3.785,22.199,9.176,30.363h-49.188c-7.406,14.742-22.783,27.469-39.816,40.514    c-16.154,12.357-20.615,19.561-20.615,33.646v126.111H164.97V286.519c0.102-17.422,10.209-25.607,26.18-37.904    c14.865-11.232,36.123-26.221,36.227-55.621v-2.979h-25.525v2.979c0.102,15.1-9.791,22.875-26.129,35.314    C160.509,239.675,139.444,256.013,139.495,286.519z M241.452,286.97h112.955v21.893H269.28c-4.227,0-7.654,3.396-7.654,7.613    c0,4.225,3.428,7.65,7.654,7.65h85.127v16.799H269.28c-4.227,0-7.654,3.438-7.654,7.652c0,4.217,3.428,7.652,7.654,7.652h85.127    v38.6H241.452V286.97z"/></g></svg>