<?xml version="1.0" ?><!DOCTYPE svg  PUBLIC '-//W3C//DTD SVG 1.1//EN'  'http://www.w3.org/Graphics/SVG/1.1/DTD/svg11.dtd'><svg height="512px" id="icon_design" style="enable-background:new 0 0 512 512;" version="1.1" viewBox="0 0 512 512" width="512px" xml:space="preserve" xmlns="http://www.w3.org/2000/svg" xmlns:xlink="http://www.w3.org/1999/xlink">
<g><path d="M374.918,188.18c2.431-2.451,3.779-5.68,3.779-9.159V72.455c0-3.416-1.38-6.759-3.779-9.158     c-2.408-2.429-5.742-3.811-9.147-3.811H146.514c-3.417,0-6.76,1.382-9.158,3.811c-2.42,2.399-3.811,5.742-3.811,9.158v106.566     c0,3.406,1.391,6.759,3.811,9.159c2.398,2.397,5.741,3.81,9.158,3.81h219.257C369.238,191.99,372.468,190.64,374.918,188.18z      M352.833,166.093H159.44v-80.71h193.393V166.093z"/><path d="M166.418,210.255c0,73.795,0,229.299,0,229.299c0,3.406,1.382,6.739,3.78,9.158     c2.43,2.398,5.752,3.79,9.168,3.79h156.219c3.438,0,6.667-1.339,9.139-3.81c2.472-2.43,3.779-5.669,3.779-9.138     c0,0,0-154.693,0-229.299H224.296c0,78.26,0,215.904,0,215.904h-31.432c0,0,0-138.236,0-215.904H166.418z M249.352,256.025     h74.365v22.273h-44.866c-4.455,0-8.059,3.603-8.059,8.068c0,4.455,3.604,8.058,8.059,8.058h44.866v15.606h-44.888     c-4.454,0-8.047,3.592-8.047,8.058c0,4.464,3.593,8.057,8.047,8.057h44.888v15.638h-44.855c-4.466,0-8.069,3.593-8.069,8.047     c0,4.455,3.604,8.067,8.069,8.067h44.855v27.994h-74.365V256.025z"/></g></svg>