<?xml version="1.0" ?><!DOCTYPE svg  PUBLIC '-//W3C//DTD SVG 1.1//EN'  'http://www.w3.org/Graphics/SVG/1.1/DTD/svg11.dtd'><svg height="512px" id="icon_design" style="enable-background:new 0 0 512 512;" version="1.1" viewBox="0 0 512 512" width="512px" xml:space="preserve" xmlns="http://www.w3.org/2000/svg" xmlns:xlink="http://www.w3.org/1999/xlink">
<g><path class="st1" d="M202.226,436.565c-12.7,0.03-29.736,3.763-44.508,9.931c-14.259,6.451-28.176,14.089-29.172,29.304     c0,1.862,0.765,3.663,2.062,4.992c1.329,1.327,3.14,2.093,5.021,2.093h204.035c1.912,0,3.693-0.766,5.022-2.093     c1.328-1.359,2.053-3.101,2.053-4.992c-1.087-15.406-15.366-22.853-29.947-29.323c-15.135-6.148-32.504-9.881-45.173-9.911     h-1.167l-0.01-79.336c0-6.29-5.514-11.039-12.508-11.039c-29.947,0-81.761-11.824-81.761-71.85     c0-25.017,8.563-45.161,19.2-60.568c-2.213,0.332-4.448,0.554-6.682,0.554h-0.141c-13.343,0.021-26.787-5.896-35.773-17.298     c-3.361-4.206-5.826-8.936-7.457-13.867c-15.819,23.468-28.095,53.384-28.095,90.164c0,104.522,84.256,121.872,88.06,122.897     v40.343H202.226z"/><path class="st1" d="M400.816,255.141c-4.85-6.138-13.746-7.163-19.884-2.324l-87.909,69.626     c-6.148,4.87-7.165,13.755-2.294,19.894c2.777,3.542,6.903,5.375,11.08,5.375c3.089,0,6.198-0.998,8.794-3.05l87.919-69.655     C404.67,270.166,405.687,261.26,400.816,255.141z"/><path class="st1" d="M313.028,201.818L258.9,244.625c0,0,16.412,6.975,27.673,11.24c17.157,6.521,33.127-6.148,30.913-24.472     C316.026,219.357,313.028,201.818,313.028,201.818z"/><path class="st1" d="M210.387,151.534c-5.495-6.974-13.615-10.597-21.887-10.597c-2.043,0-4.056,0.554-6.048,0.996     c-3.955,0.887-7.799,2.325-11.19,5.031c-1.68,1.329-3.139,2.828-4.427,4.408c-2.647,3.291-4.428,7.054-5.374,11.009     c-0.493,2.133-0.775,4.267-0.775,6.45c0,6.088,1.942,12.086,6.007,17.268c5.504,6.944,13.615,10.516,21.856,10.516     c4.056,0,7.99-1.188,11.764-2.988c1.872-0.855,3.803-1.64,5.504-2.988c6.953-5.515,10.545-13.615,10.576-21.897     C216.364,162.664,214.402,156.596,210.387,151.534z"/><path class="st1" d="M186.618,19.177c-2.445-3.068-6.873-3.632-9.932-1.197l-65.439,51.833c-3.079,2.405-3.593,6.864-1.147,9.933     l45.716,57.731c1.429-1.5,2.727-3.07,4.388-4.398c8.271-6.621,18.385-9.941,28.297-9.852c5.132-0.029,10.194,1.107,15.094,2.818     c7.235,2.575,13.897,6.862,19.209,13.011c0.453,0.523,1.017,0.906,1.459,1.47c6.562,8.271,9.791,18.313,9.832,28.276     c0,0.522-0.161,1.047-0.181,1.579c-0.081,2.405-0.333,4.811-0.806,7.216c-2.032,10.244-7.497,19.925-16.301,26.909l-0.081,0.05     c-1.62,1.277-3.361,2.324-5.102,3.37l19.784,24.967c1.177,1.5,2.868,2.436,4.729,2.626c0.292,0.061,0.584,0.061,0.876,0.061     c1.569,0,3.079-0.522,4.357-1.529l65.378-51.743c1.469-1.188,2.436-2.878,2.657-4.76c0.201-1.853-0.332-3.733-1.479-5.233     L186.618,19.177z"/></g></svg>