<?xml version="1.0" ?><!DOCTYPE svg  PUBLIC '-//W3C//DTD SVG 1.1//EN'  'http://www.w3.org/Graphics/SVG/1.1/DTD/svg11.dtd'><svg height="512px" id="icon_design" style="enable-background:new 0 0 512 512;" version="1.1" viewBox="0 0 512 512" width="512px" xml:space="preserve" xmlns="http://www.w3.org/2000/svg" xmlns:xlink="http://www.w3.org/1999/xlink">
<g><path d="M408.754,213.4c-2.372-2.398-5.598-3.782-8.957-3.782H101.201c-3.369,0-6.631,1.366-8.994,3.782     c-2.371,2.399-3.701,5.66-3.647,9.021c0.593,43.728,6.505,85.163,30.825,116.914c14.42,18.75,35.139,32.685,62.721,41.059     c-0.988,0.377-2.013,0.7-2.975,1.096c-12.748,5.75-25.146,12.542-26.045,26.136c0,1.653,0.683,3.288,1.851,4.475     c1.177,1.186,2.803,1.823,4.492,1.823h182.149c1.688,0,3.288-0.638,4.482-1.823c1.195-1.213,1.824-2.795,1.824-4.475     c-0.971-13.764-13.719-20.386-26.737-26.162c-0.854-0.351-1.761-0.62-2.624-0.943c27.771-8.374,48.588-22.354,63.07-41.185     c24.321-31.751,30.242-73.187,30.844-116.914c0.027-3.36-1.285-6.621-3.675-9.021C408.763,213.4,408.763,213.4,408.754,213.4z      M281.383,351.931l-12.561-16.298l-12.65,16.298h-20.754l23.189-29.567l-23.189-30.17h-12.919v30.467h-17.915v-76.763h38.597     c10.764,0,17.897,3.603,22.102,9.092c3.1,4.025,4.654,9.038,4.654,14.501c0,2.498-0.477,4.717-1.195,6.792     c-2.407,6.847-8.302,11.365-15.156,13.44l15.265,19.568l10.771-13.737l9.946-0.026l10.313-0.019l-2.938,3.801l-17.861,23.081     l23.072,29.54H281.383z"/><path d="M240.935,259.481h-18.436v19.119h18.436c7.88,0,11.482-4.591,11.482-9.56     C252.417,264.082,248.814,259.481,240.935,259.481z"/><path d="M415.941,100.197c-8.769-5.83-22.47-0.745-28.148,7.808c-26.611,39.899-49.729,66.934-68.021,85.783     l61.498,0.018c9.622-18.669,22.012-40.196,38.31-64.634C425.187,120.781,424.729,106.047,415.941,100.197z"/></g></svg>