<?xml version="1.0" ?><!DOCTYPE svg  PUBLIC '-//W3C//DTD SVG 1.1//EN'  'http://www.w3.org/Graphics/SVG/1.1/DTD/svg11.dtd'><svg height="512px" id="Layer_5" style="enable-background:new 0 0 512 512;" version="1.1" viewBox="0 0 512 512" width="512px" xml:space="preserve" xmlns="http://www.w3.org/2000/svg" xmlns:xlink="http://www.w3.org/1999/xlink">
<g><path d="M110.903,410.52l3.907,1.688c15.561,6.577,31.868,9.647,48.135,9.647c7.5,0,14.957-0.727,22.374-1.996    c22.507,20.871,47.449,34.037,70.447,34.438c22.773-0.379,47.397-13.311,69.71-33.781c7.53,1.371,15.12,2.158,22.793,2.189    c16.461,0,33.044-3.396,48.963-10.672l3.672-1.655l2.057-3.521c16.256-27.92,23.479-56.851,23.438-84.615    c-0.348-47.685-20.911-91.574-51.664-124.137l9.749-43.152c0.625-2.916,0.962-5.74,0.962-8.717    c-0.492-22.477-15.827-43.428-38.641-60.38c-23.07-16.767-54.917-28.962-91.583-28.992c-36.666,0.03-68.544,12.226-91.614,28.992    c-22.844,16.952-38.179,37.904-38.64,60.38c0,2.977,0.337,5.934,0.982,8.757l9.975,44.156    c-30.201,32.461-50.304,75.931-50.651,123.093c-0.031,27.765,7.212,56.695,23.52,84.646L110.903,410.52z M178.639,106.47    c18.773-13.688,45.669-24.123,76.585-24.123c30.886,0,57.761,10.435,76.555,24.123c19.018,13.535,28.645,30.887,28.153,39.766    c0,1.084-0.092,2.2-0.337,3.355l-6.507,28.727l-9.013,39.91c-17.331-5.382-49.26-13.176-88.852-13.197    c-39.582,0.021-71.521,7.815-88.852,13.197l-8.849-39.131l-6.731-29.761c-0.225-0.993-0.328-2.016-0.328-3.1    C149.983,137.357,159.62,120.005,178.639,106.47z M125.675,315.325c26.937-3.192,44.575-19.703,56.074-36.378    c11.375-16.522,15.693-32.073,15.693-32.094l3.039-10.905l1.381-4.962l3.651,4.072l7.336,8.194    c0.051-0.072,1.729,1.974,6.486,5.708c4.778,3.755,12.236,8.849,22.814,14.027c21.136,10.312,54.63,20.891,103.758,20.891    c10.547,0,21.811-0.493,33.923-1.555c4.942-0.43,9.31,3.202,9.75,8.173c0.399,4.932-3.233,9.309-8.174,9.74    c-8.44,0.758-16.43,1.155-24.206,1.382v0.041c-0.645,21.382-7.09,41.801-17.054,59.807c-0.123,0.216-0.267,0.42-0.378,0.645    c-1.873,3.346-3.836,6.631-5.924,9.802c-0.695,1.054-1.463,2.034-2.179,3.069c-1.586,2.291-3.171,4.604-4.87,6.782    c-2.475,3.212-5.043,6.302-7.703,9.247c-7.233,8.166-15.121,15.061-22.988,20.749c-15.458,11.19-30.732,17.351-40.338,17.044    c-9.699,0.327-25.156-5.965-40.738-17.332c-7.724-5.627-15.489-12.43-22.599-20.461c-3.704-4.122-7.212-8.572-10.578-13.186    c-0.501-0.707-1.023-1.381-1.515-2.088c-3.14-4.471-6.045-9.178-8.747-14.046c-0.491-0.899-0.992-1.79-1.462-2.712    c-2.63-4.971-5.023-10.098-7.08-15.396c-0.265-0.716-0.501-1.432-0.757-2.158c-2.066-5.607-3.888-11.336-5.177-17.219    c0-0.02-0.02-0.03-0.02-0.04c-8.604,4.255-18.2,7.61-29.31,9.075h0.03c-0.369,0.039-0.716,0.061-1.085,0.061    c-4.521,0-8.398-3.376-8.952-7.949C117.194,320.42,120.703,315.918,125.675,315.325z"/><path d="M211.734,333.301c10.772,0,19.53-8.747,19.53-19.531c0-10.793-8.757-19.54-19.53-19.54    c-10.793,0-19.54,8.747-19.54,19.54C192.194,324.554,200.941,333.301,211.734,333.301z"/><polygon points="241.443,190.167 269.577,190.167 269.618,160.989 298.765,160.989 298.765,132.834 269.618,132.834     269.618,103.657 241.443,103.657 241.443,132.834 212.266,132.834 212.266,160.989 241.443,160.989   "/><path d="M299.358,333.301c10.772,0,19.52-8.747,19.52-19.531c0-10.793-8.747-19.54-19.52-19.54    c-10.793,0-19.54,8.747-19.54,19.54C279.818,324.554,288.565,333.301,299.358,333.301z"/></g></svg>