<?xml version="1.0" ?><!DOCTYPE svg  PUBLIC '-//W3C//DTD SVG 1.1//EN'  'http://www.w3.org/Graphics/SVG/1.1/DTD/svg11.dtd'><svg height="512px" id="icon_design" style="enable-background:new 0 0 512 512;" version="1.1" viewBox="0 0 512 512" width="512px" xml:space="preserve" xmlns="http://www.w3.org/2000/svg" xmlns:xlink="http://www.w3.org/1999/xlink">
<g><path d="M292.645,343.653v-0.028c0,0-21.783,5.711-47.9,10.332v43.328c35.465-10.164,59.253-25.135,59.873-25.271     c9.299-6.46,11.951-11.737,8.216-20.191C309.375,344.038,303.35,341.441,292.645,343.653z"/><path d="M256.254,440.193c-8.699-3.245-18.165-5.25-25.271-5.436l-0.03-107.785c-4.296,0.925-8.62,1.818-12.7,2.714     c-6.487,1.298-12.681,2.781-18.441,4.296v100.716c-7.184,0.089-16.888,2.133-25.734,5.495     c-8.453,3.804-17.732,7.264-18.893,18.243c0,1.652,0.678,3.215,1.84,4.403c1.188,1.161,2.76,1.81,4.413,1.81h107.931     c1.622,0,3.223-0.648,4.384-1.838c1.189-1.16,1.838-2.723,1.838-4.375C274.34,447.3,264.905,443.997,256.254,440.193z"/><path d="M230.952,252.316v-20.221c44.019-4.049,79.994-24.25,90.13-53.602c0.618-1.897,0.295-3.951-0.895-5.594     c-1.131-1.632-3.027-2.574-4.994-2.574H115.589c-1.976,0-3.872,0.942-5.061,2.574c-1.133,1.612-1.485,3.696-0.837,5.594     c10.136,29.352,46.121,49.553,90.119,53.602v26.491C209.848,256.562,220.386,254.478,230.952,252.316z"/><path d="M134.994,142.213c-0.728,0.511-0.924,1.464-0.513,2.24c0.433,0.768,1.348,1.112,2.183,0.816l17.33-6.409     l-8.513,16.838c-0.402,0.816-0.138,1.79,0.649,2.281c0.402,0.265,0.895,0.344,1.326,0.235c0.374-0.079,0.728-0.295,1.003-0.618     c14.027-16.73,32.487-26.001,40.382-29.441c-5.033-2.379-9.408-5.76-13.055-10.184     C159.401,124.293,135.072,142.162,134.994,142.213z"/><path d="M309.354,70.149c-25.115-5.76-41.207-9.033-67.02-8.896c-25.597,0.138-70.086,26.107-61.388,40.931     c22.953,39.114,93.777,18.187,114.351,15.649c31.239-3.893,65.407,13.732,65.407,52.039c0,23.915-15.806,56.011-44.412,71.679     c-20.051,11.009-53.217,18.411-85.341,24.899c-10.675,2.133-21.243,4.217-31.142,6.241c-5.622,1.169-11.029,2.33-16.13,3.489     c-33.038,7.568-78.608,28.085-76.644,72.908c1.849,41.796,45.012,57.307,75.778,57.307c1.081,0,2.133-0.077,3.214-0.077V359.41     c-16.681-0.697-29.006-4.589-30.117-14.508c-1.298-11.245,17.732-18.578,43.898-25.066c9.634-2.398,20.2-4.669,31.142-6.969     c21.685-4.541,44.637-9.221,63.884-15.168c58.419-18.087,110.015-59.873,110.015-128.043     C404.851,101.448,352.114,79.932,309.354,70.149z M230.254,91.963c-7.834,1.297-13.143-0.108-14.271-4.051     c-1.082-3.843,7.705-9.112,16.219-10.547c10.331-1.761,14.351,3.431,13.328,6.782C244.479,87.5,238.069,90.664,230.254,91.963z"/></g></svg>