<?xml version="1.0" ?><!DOCTYPE svg  PUBLIC '-//W3C//DTD SVG 1.1//EN'  'http://www.w3.org/Graphics/SVG/1.1/DTD/svg11.dtd'><svg height="512px" id="Layer_5" style="enable-background:new 0 0 512 512;" version="1.1" viewBox="0 0 512 512" width="512px" xml:space="preserve" xmlns="http://www.w3.org/2000/svg" xmlns:xlink="http://www.w3.org/1999/xlink">
<g><path d="M183.156,422.697c24.124,0,48.35-9.289,66.764-27.663l147.227-147.227h0.02    c18.395-18.415,27.643-42.671,27.622-66.764c0.021-24.133-9.228-48.39-27.622-66.774c-18.405-18.415-42.661-27.663-66.784-27.663    s-48.38,9.248-66.764,27.704L116.423,261.506c-18.436,18.374-27.725,42.63-27.694,66.753c-0.03,24.135,9.218,48.35,27.673,66.775    C134.807,413.449,159.033,422.697,183.156,422.697z M134.429,279.542l147.227-147.227c13.473-13.504,31.029-20.184,48.728-20.215    c17.699,0.031,35.254,6.711,48.758,20.185c1.064,1.074,1.821,2.322,2.813,3.447c-28.195-9.003-60.206-2.67-82.57,19.683    l-74.211,74.202l19.08,19.09l57.966,57.965l-70.304,70.314c-13.545,13.483-31.09,20.184-48.759,20.215    c-17.688-0.031-35.203-6.711-48.728-20.215c-13.525-13.504-20.185-31.06-20.215-48.729    C114.244,310.592,120.925,293.016,134.429,279.542z"/></g></svg>