<?xml version="1.0" ?><!DOCTYPE svg  PUBLIC '-//W3C//DTD SVG 1.1//EN'  'http://www.w3.org/Graphics/SVG/1.1/DTD/svg11.dtd'><svg height="512px" id="Layer_5" style="enable-background:new 0 0 512 512;" version="1.1" viewBox="0 0 512 512" width="512px" xml:space="preserve" xmlns="http://www.w3.org/2000/svg" xmlns:xlink="http://www.w3.org/1999/xlink">
<g><path d="M90.885,119.418v275.586c0,3.253,1.305,6.407,3.6,8.7c2.293,2.294,5.477,3.608,8.729,3.608h313.16    c3.271,0,6.367-1.275,8.699-3.608c2.363-2.323,3.609-5.417,3.609-8.7V119.418c0-3.252-1.316-6.436-3.609-8.728    c-2.293-2.294-5.455-3.6-8.699-3.6h-313.16c-3.252,0-6.436,1.306-8.729,3.6C92.189,112.983,90.885,116.167,90.885,119.418z     M115.53,131.726h288.507v250.952H115.53V131.726z"/><path d="M322.253,256.49l-10.726,39.246l-30.209-129.135c-1.295-5.446-6.078-9.351-11.684-9.499    c-5.565-0.178-10.6,3.489-12.15,8.848l-24.277,82.879l-12.526-21.917c-2.155-3.756-6.118-6.139-10.468-6.188    c-4.311-0.089-8.365,2.076-10.656,5.733l-13.979,22.223h-45.434v24.664h52.264c4.222,0,8.166-2.205,10.42-5.783l6.652-10.598    l16.727,29.242c2.451,4.29,7.207,6.702,12.129,6.138c4.903-0.593,8.997-4.053,10.401-8.788l19.226-65.817l30.705,130.952    c1.285,5.506,6.109,9.411,11.764,9.5h0.266c5.547,0,10.361-3.688,11.853-9.056l21.007-77.106l35.776,0.03v-24.635l-45.187-0.019    C328.6,247.406,323.727,251.122,322.253,256.49z"/></g></svg>