<?xml version="1.0" encoding="utf-8"?>
<svg version="1.1" id="Layer_1" xmlns="http://www.w3.org/2000/svg" xmlns:xlink="http://www.w3.org/1999/xlink" x="0px" y="0px"
	 viewBox="0 0 141.7 141.7" style="enable-background:new 0 0 141.7 141.7;" xml:space="preserve">
<g>
	<path style="fill:#00A651;" d="M99.7,65h17.4c1.8,5.1,2.8,10.7,2.8,16.4c0,6.1-1.1,12-3.2,17.4H99.1c3.1-5.1,4.9-11,4.9-17.4
		C104.1,75.4,102.5,69.8,99.7,65z M37.7,81.4c0-6,1.6-11.6,4.3-16.4H24.7c-1.8,5.1-2.8,10.7-2.8,16.4c0,6.1,1.1,12,3.2,17.4h17.6
		C39.5,93.7,37.7,87.8,37.7,81.4z"/>
	<path style="fill:#ED1C24;" d="M70.9,130.4c21,0,38.8-13.1,45.8-31.6H99.1c-5.8,9.5-16.3,15.8-28.3,15.8c-11.9,0-22.4-6.3-28.3-15.8H25
		C32,117.3,49.9,130.4,70.9,130.4z"/>
	<path style="fill:#FFFFFF;" d="M70.9,48.2c12.4,0,23.1,6.8,28.8,16.8h17.4c-6.8-19-24.9-32.6-46.2-32.6c-21.3,0-39.5,13.6-46.2,32.6H42
		C47.7,54.9,58.5,48.2,70.9,48.2z"/>
	<path style="fill:#2E3192;" d="M43.5,79.9H56V11.3H43.5v9.4H33.2v-9.4H20.7V64c2.5-8,6.8-15.2,12.6-21v-9.5h10.3V79.9z M68.8,78.6L82.2,92
		l0,0c-2.8,3.1-6.8,5.1-11.4,5.1c-7.7,0-13.9-5.8-14.8-13.3H44.2l-0.7,0c0.6,14.6,12.5,26.3,27.3,26.3c12.8,0,23.5-8.6,26.5-20.5
		L77.6,69.7L68.8,78.6z M125.2,44.1h-14L96.6,59.2V19.8H84.1v23.6l-3.8,0l-22.2,0l0,11.8l12.5,0L58,67.8l7.1,7.1l19-19.2v15.4h0
		l40.4,40.7V94.1L101,70.5L125.2,44.1z"/>
</g>
</svg>
