<?xml version="1.0" ?><!DOCTYPE svg  PUBLIC '-//W3C//DTD SVG 1.1//EN'  'http://www.w3.org/Graphics/SVG/1.1/DTD/svg11.dtd'><svg height="512px" id="icon_design" style="enable-background:new 0 0 512 512;" version="1.1" viewBox="0 0 512 512" width="512px" xml:space="preserve" xmlns="http://www.w3.org/2000/svg" xmlns:xlink="http://www.w3.org/1999/xlink">
<g><path d="M118.71,360.412l28.937,80.285c0.781,2.255,2.688,3.873,5.011,4.346c0.462,0.078,0.935,0.135,1.388,0.135     c1.869,0,3.651-0.771,4.952-2.177c0.068-0.049,40.104-43.323,84.188-96.744c-18.693-23.579-37.657-47.621-54.471-71.064     c-36.616,42.63-68.598,78.301-68.684,78.407C118.382,355.449,117.862,358.052,118.71,360.412z"/><path d="M269.193,177.303c15.273,19.531,34.188,42.396,52.958,64.444c18.587-28.243,32.116-53.894,35.286-72.789     c0.501-3.393,0.752-6.813,0.723-10.263c-0.723-39.266-29.225-84.024-57.728-101.967c-0.762-0.5-1.629-0.925-2.438-1.367     c-2.014-1.176-4.028-2.178-6.013-3.055c-0.944-0.424-1.85-0.819-2.823-1.186c-0.241-0.087-0.492-0.241-0.723-0.328     c-0.067-0.019-0.135,0.029-0.203,0c-9.539-3.574-20.466-5.589-31.904-5.665c-11.438,0.076-22.365,2.091-31.904,5.665     c-0.048,0.029-0.115,0-0.173,0c-0.212,0.087-0.424,0.213-0.636,0.271c-1.05,0.424-2.052,0.848-3.054,1.301     c-1.898,0.819-3.797,1.802-5.686,2.882c-0.915,0.51-1.859,0.982-2.717,1.512c-28.483,17.99-56.977,62.7-57.699,101.938     c0,3.421,0.222,6.87,0.78,10.339c6.427,38.447,55.859,105.012,103.875,164.532c47.977,59.115,94.508,109.386,94.557,109.435     c1.301,1.406,3.083,2.177,4.943,2.177c0.453,0,0.916-0.057,1.378-0.135c2.341-0.473,4.23-2.12,5.03-4.346l28.927-80.285     c0.838-2.36,0.347-4.992-1.311-6.812c-0.106-0.106-39.844-44.412-81.471-93.362c-41.511-48.517-85.499-103.151-91.608-118.762     c-2.669-6.571-4.201-12.901-5.001-18.972c2.072-1.215,5.175-2.891,9.202-4.636c8.007-3.421,19.358-6.842,32.569-6.842     c13.21,0,24.494,3.45,32.473,6.919c4.104,1.773,7.179,3.498,9.25,4.74c-0.8,6.043-2.293,12.297-4.953,18.79     C290.594,147.884,281.661,160.902,269.193,177.303z"/></g></svg>