<?xml version="1.0" ?><!DOCTYPE svg  PUBLIC '-//W3C//DTD SVG 1.1//EN'  'http://www.w3.org/Graphics/SVG/1.1/DTD/svg11.dtd'><svg height="512px" id="icon_design" style="enable-background:new 0 0 512 512;" version="1.1" viewBox="0 0 512 512" width="512px" xml:space="preserve" xmlns="http://www.w3.org/2000/svg" xmlns:xlink="http://www.w3.org/1999/xlink">
<g><path d="M49.052,237.288l83.133,46.946l48.161-12.789l21.308-21.367c-22.622-12.869-49.663-28.146-66.194-37.063     c-12.041-6.509-24.632-9.166-36.387-9.166c-23.139,0.159-43.303,9.714-52.509,23.558c-1.034,1.622-1.343,3.642-0.865,5.474     C46.156,234.771,47.37,236.333,49.052,237.288z"/><path d="M404.516,307.523c-0.289-0.03-60.283-0.061-108.115-0.061c-0.198,0.2-0.308,0.439-0.518,0.638     c-7.623,7.604-38.406,38.636-47.264,47.483h90.768c-2.011,6.29-3.156,12.998-3.146,20.033c0,37.682,30.535,68.255,68.275,68.255     c37.709,0,68.272-30.573,68.272-68.255C472.809,337.878,442.205,307.523,404.516,307.523z M404.485,404.71     c-16.233-0.05-29.42-13.218-29.45-29.51c0.03-16.302,13.167-29.39,29.48-29.469c16.252,0.028,29.448,13.216,29.479,29.469     C433.964,391.492,420.797,404.66,404.485,404.71z"/><path d="M67.404,356.509l137.126,0.03c0.338,0,0.666,0,0.995,0c6.141,0,11.484-1.094,16.242-3.095     c4.658-1.972,8.777-4.757,12.58-8.32c0.259-0.239,22.521-22.632,37.461-37.661c5.195-5.225,9.515-9.554,11.704-11.763     c9.216-9.147,11.933-19.767,11.862-27.729c0-0.955-0.049-1.642-0.049-1.91c-0.278-5.017-0.965-11.883-1.384-15.964l70.981-70.861     l0.061-0.051c11.952-12.262,17.676-28.633,17.635-45.949c0-37.741-30.554-68.265-68.273-68.295     c-37.74,0.03-68.273,30.554-68.273,68.295c0,26.324,14.948,48.985,36.744,60.291l-65.358,65.547l-28.036,28.137l-35.342,9.364     L44.475,325.637c-3.604,0.955-5.803,4.519-5.097,8.162C39.408,334.236,43.996,356.102,67.404,356.509z M314.137,103.975     c16.232,0.03,29.43,13.197,29.479,29.48c-0.05,16.223-13.207,29.39-29.521,29.448c-16.251-0.059-29.379-13.197-29.448-29.448     C284.717,117.142,297.845,104.005,314.137,103.975z M225.559,286.475c5.117,0.029,9.426,2.795,12.084,6.758     c1.571,2.357,2.727,5.015,2.727,8.051c0,2.219-0.578,4.27-1.464,6.18c-1.642,3.504-4.588,6.19-8.229,7.555     c-1.613,0.607-3.295,1.045-5.117,1.045c-0.258,0-0.467-0.14-0.726-0.17c-7.804-0.377-14.054-6.727-14.054-14.609     C210.779,293.092,217.418,286.504,225.559,286.475z"/></g></svg>