<?xml version="1.0" ?><!DOCTYPE svg  PUBLIC '-//W3C//DTD SVG 1.1//EN'  'http://www.w3.org/Graphics/SVG/1.1/DTD/svg11.dtd'><svg height="512px" id="Layer_5" style="enable-background:new 0 0 512 512;" version="1.1" viewBox="0 0 512 512" width="512px" xml:space="preserve" xmlns="http://www.w3.org/2000/svg" xmlns:xlink="http://www.w3.org/1999/xlink">
<g><path d="M390.078,311.743c12.8,0,23.226-10.435,23.226-23.264c0-12.849-10.426-23.254-23.226-23.254    c-12.849,0-23.293,10.406-23.293,23.254C366.785,301.308,377.229,311.743,390.078,311.743z"/><path d="M372.373,345.335c-4.936,35.771-34.345,68.64-78.127,68.688c-47.965-0.049-78.704-39.464-78.919-78.909    v-7.875c-5.295,0.616-10.65,1.016-16.083,1.016c-0.255,0-0.489-0.009-0.752-0.009h-1.789c0,0-0.116,0-0.684,0    c-5.95,0.02-11.822-0.42-17.597-1.133v8.002c0.097,57.941,45.776,115.637,115.824,115.813    c66.1-0.136,110.527-51.619,115.364-106.16c23.381-8.129,40.275-30.133,40.294-56.299c-0.029-33.055-26.801-59.836-59.798-59.836    c-33.093,0-59.914,26.781-59.914,59.836C330.192,315.319,347.995,337.753,372.373,345.335z M390.106,248.155    c22.161,0.02,40.217,18.047,40.286,40.314c-0.069,22.238-18.125,40.295-40.286,40.324c-22.307-0.029-40.361-18.085-40.392-40.324    C349.745,266.231,367.8,248.174,390.106,248.155z"/><path d="M89.391,235.766c11.686,40.451,46.479,68.073,89.031,74.072c6.058,0.85,12.282,1.271,18.613,1.221    c0.489,0.01,0.978,0.01,1.477,0.01c5.715,0,11.324-0.468,16.815-1.201c42.328-5.657,77.239-32.547,89.247-73.984l16.641-57.296    c2.149-8.51,3.078-16.24,3.078-23.743c-0.05-33.748-20.021-62.26-48.602-73.212c0,0,0-0.01-0.008-0.01    c-4.721-10.523-15.225-17.871-27.506-17.871c-16.669,0-30.202,13.522-30.202,30.172c0,16.688,13.532,30.212,30.202,30.212    c6.897,0,13.182-2.414,18.262-6.312c12.192,6.205,20.675,19.2,20.938,37.021c0,4.426-0.556,9.136-1.777,14.119l-16.434,56.465    c-9.635,30.905-34.248,48.131-72.13,48.737c-37.5-0.391-63.294-19.356-72.225-48.796l-16.463-56.456    c-0.909-3.713-1.427-7.943-1.427-12.155c0.137-17.178,8.48-30.817,19.923-37.852c4.846,3.302,10.689,5.236,16.981,5.246    c16.649-0.029,30.183-13.542,30.183-30.21c0-16.669-13.533-30.183-30.183-30.202c-12.78,0.019-23.665,7.973-28.091,19.17    c-27.535,12.282-45.649,41.536-45.718,73.848c0,7.074,0.841,14.422,2.717,21.856L89.391,235.766z"/></g></svg>