<?xml version="1.0" ?><!DOCTYPE svg  PUBLIC '-//W3C//DTD SVG 1.1//EN'  'http://www.w3.org/Graphics/SVG/1.1/DTD/svg11.dtd'><svg height="512px" id="icon_design" style="enable-background:new 0 0 512 512;" version="1.1" viewBox="0 0 512 512" width="512px" xml:space="preserve" xmlns="http://www.w3.org/2000/svg" xmlns:xlink="http://www.w3.org/1999/xlink">
<g><path class="st1" d="M171.522,313.746c-5.299,5.307-5.299,13.905,0,19.242c2.654,2.624,6.127,3.947,9.602,3.947     s6.958-1.323,9.593-3.947l146.004-145.966c5.289-5.328,5.289-13.926,0-19.233c-5.307-5.278-13.934-5.278-19.242,0     L171.522,313.746z"/><path class="st1" d="M305.812,130.896c-16.203,15.922-32.482,15.922-43.571,16.724c-20.767,1.303-41.253,9.92-57.138,25.843     L92.422,286.146c-17.38,17.351-26.114,40.203-26.114,62.948c0,22.743,8.734,45.587,26.114,62.966     c17.35,17.36,40.221,26.143,62.977,26.094h0.114c22.698,0,45.499-8.763,62.841-26.065l112.693-112.703     c15.738-15.739,24.404-36.032,25.822-56.625v-0.03c0.889-11.734,0.146-27.048,16.764-44.033     c13.317-13.346,58.063-58.083,58.063-58.083c9.341-9.37,14.061-21.712,14.031-33.92c0.029-12.255-4.69-24.568-14.031-33.91     c-9.331-9.342-21.673-14.07-33.92-14.07c-12.245,0-24.626,4.728-33.938,14.147C363.809,72.862,319.814,116.885,305.812,130.896z      M397.776,82.781c4.545,0.03,9.023,1.274,12.97,3.851l-64.567,64.54l20.485,20.486c-4.071,4.092-7.594,7.596-10.036,10.036     c-23.39,22.977-23.159,49.679-23.757,59.368c-1.081,15.121-7.305,29.77-18.817,41.339L201.359,395.057     c-12.766,12.709-29.297,19.049-45.961,19.049c-16.705,0-33.236-6.311-45.975-19.049s-19.02-29.278-19.059-45.962     c0.039-16.561,6.264-32.994,18.856-45.732l23.875,23.894l12.003-12.024l-23.893-23.884l23.643-23.652l23.884,23.893     l12.023-12.023l-23.912-23.856l23.642-23.652l23.904,23.884l11.994-12.023l-23.865-23.875l23.625-23.624l23.894,23.884     l11.995-11.995l-23.334-23.353c10.422-7.991,22.541-12.526,35.077-13.347c10.018-0.587,36.555-1.032,59.029-23.7     c14.003-14.011,58.073-58.093,58.073-58.093C385.56,85.118,391.62,82.811,397.776,82.781z"/></g></svg>