<svg height="512px" id="icon_design" style="enable-background:new 0 0 512 512;" version="1.1" viewBox="0 0 512 512"
     width="512px" xml:space="preserve" xmlns="http://www.w3.org/2000/svg">
<path class="st1"
      d="M135.752,443.66c0.895,3.364,3.146,6.312,6.18,8.056c2.016,1.168,4.325,1.761,6.652,1.761     c1.148,0,2.298-0.141,3.43-0.442l241.844-64.783c3.42-0.933,6.285-3.119,8.065-6.181c1.771-3.071,2.232-6.661,1.318-10.052     l-0.008-0.029l-4.976-18.57L338.45,130.144c-0.905-3.41-3.166-6.331-6.173-8.074c-3.033-1.761-6.716-2.27-10.08-1.347     l-157.54,42.219l-84.343,22.603c-7.085,1.902-11.269,9.177-9.374,16.262L135.752,443.66z M141.451,209.136l23.206-6.218     l119.325-31.968c6.012-1.592,12.229,1.97,13.831,8c1.631,6.029-1.969,12.229-7.988,13.849l-57.229,15.33l6.86,25.57     l67.224-18.004c6.009-1.602,12.228,1.959,13.83,7.989c1.593,6.04-1.97,12.248-7.99,13.868l-67.214,18.005l6.859,25.581     l57.209-15.339c6.029-1.602,12.236,1.998,13.867,8.027c1.593,6.011-1.997,12.21-8.026,13.831l-57.199,15.339l5.003,18.656     c30.64-5.069,56.248,1.027,60.138,15.498c1.367,5.126-0.414,10.713-4.239,16.272c-8.602,12.512-28.604,24.893-53.939,31.685     c-36.603,9.809-69.908,4.23-74.364-12.445c-1.62-6.058,0.961-12.729,6.425-19.239c7.604-9.083,20.963-17.863,37.857-24.232     l-4.994-18.665l-57.189,15.339c-0.971,0.245-1.96,0.376-2.931,0.376c-1.837,0-3.551-0.583-5.125-1.404     c-2.723-1.394-4.956-3.778-5.804-6.98c-1.395-5.211,1.226-10.336,5.804-12.757c0.716-0.377,1.386-0.887,2.215-1.103l57.179-15.33     l-6.858-25.571l-52.535,14.086l-14.679,3.92c-0.98,0.263-1.95,0.395-2.902,0.395c-5.002,0-9.592-3.335-10.939-8.414     c-1.62-6.01,1.971-12.21,8.009-13.831l20.512-5.493l46.694-12.512l-6.85-25.58l-39.845,10.674l-17.364,4.656     c-0.99,0.253-1.959,0.376-2.93,0.376c-4.994,0-9.572-3.316-10.93-8.367C131.822,216.966,135.431,210.756,141.451,209.136z"/>
    <path class="st1"
          d="M260.043,366.694c6.896-1.836,11.795-7.15,13.209-13.274c0.574-2.478,0.622-5.06-0.067-7.632     c-2.393-8.988-12.173-14.152-21.848-11.561c-9.036,2.421-14.679,10.77-13.426,19.192c0.095,0.583,0.122,1.149,0.272,1.733     C240.605,364.132,250.386,369.285,260.043,366.694z"/>
    <path class="st1"
          d="M325.562,103.651c5.341,0,10.468,1.422,15.026,4.061c6.793,3.994,11.796,10.354,13.868,18.117l60.959,227.59     h12.88c3.542,0,6.858-1.375,9.384-3.882c2.497-2.496,3.872-5.841,3.872-9.383V89.773c0-3.552-1.375-6.888-3.872-9.394     c-2.507-2.497-5.842-3.873-9.384-3.873H177.904c-3.506,0-6.944,1.404-9.402,3.873c-2.45,2.478-3.845,5.87-3.845,9.394v55.993     l152.396-40.834C320.322,103.896,323.177,103.651,325.562,103.651z"/></svg>