<?xml version="1.0" encoding="UTF-8" standalone="no"?>
<!-- Created with Inkscape (http://www.inkscape.org/) -->

<svg
   xmlns:dc="http://purl.org/dc/elements/1.1/"
   xmlns:cc="http://creativecommons.org/ns#"
   xmlns:rdf="http://www.w3.org/1999/02/22-rdf-syntax-ns#"
   xmlns="http://www.w3.org/2000/svg"
   xmlns:inkscape="http://www.inkscape.org/namespaces/inkscape"
   version="1.1"
   width="675.0625"
   height="225.02499"
   id="svg2"
   xml:space="preserve"><metadata
     id="metadata8"><rdf:RDF><cc:Work
         rdf:about=""><dc:format>image/svg+xml</dc:format><dc:type
           rdf:resource="http://purl.org/dc/dcmitype/StillImage" /></cc:Work></rdf:RDF></metadata><defs
     id="defs6"><clipPath
       id="clipPath18"><path
         d="m 0,0 5400.55,0 0,1800 L 0,1800 0,0 z"
         inkscape:connector-curvature="0"
         id="path20" /></clipPath></defs><g
     transform="matrix(1.25,0,0,-1.25,0,225.025)"
     id="g10"><g
       transform="scale(0.1,0.1)"
       id="g12"><g
         id="g14"><g
           clip-path="url(#clipPath18)"
           id="g16"><path
             d="m 1001.11,996.375 c 0,100.265 -13.2,154.355 -72.563,154.355 -69.914,0 -81.789,-58.05 -81.789,-154.355 l 154.352,0 z m -154.352,-123.984 0,-43.543 c 0,-110.817 15.82,-164.907 77.832,-164.907 55.41,0 72.558,40.899 77.83,130.61 l 197.88,0 C 1196.35,617.77 1100.05,532.02 923.27,532.02 c -269.122,0 -290.223,188.64 -290.223,401.046 0,200.504 58.047,349.594 290.223,349.594 265.16,0 283.63,-167.56 283.63,-410.269 l -360.142,0"
             inkscape:connector-curvature="0"
             id="path24"
             style="fill:#0d4d84;fill-opacity:1;fill-rule:nonzero;stroke:none" /><path
             d="m 1522.18,1082.15 60.68,0 c 88.4,0 109.5,55.39 109.5,118.72 0,72.56 -23.76,127.95 -113.45,127.95 l -56.73,0 0,-246.67 z m -221.63,410.27 343,0 c 233.5,0 278.36,-168.87 278.36,-286.28 0,-168.85 -80.48,-287.597 -302.12,-287.597 l -97.61,0 0,-368.055 -221.63,0 0,941.932"
             inkscape:connector-curvature="0"
             id="path26"
             style="fill:#0d4d84;fill-opacity:1;fill-rule:nonzero;stroke:none" /><path
             d="m 2220.06,679.781 c 44.85,0 85.75,26.367 85.75,97.617 0,59.348 1.32,96.293 1.32,125.336 -67.29,-35.636 -96.31,-36.953 -116.09,-52.773 -22.43,-17.148 -32.98,-39.59 -32.98,-79.16 0,-56.731 22.42,-91.02 62,-91.02 z M 1972.05,1045.2 c 1.32,97.61 30.34,156.99 80.47,191.28 50.13,34.3 110.82,46.18 199.21,46.18 175.45,0 253.28,-60.7 253.28,-211.08 l 0,-366.74 c 0,-54.102 0,-122.692 25.08,-154.352 l -205.81,0 c -7.92,25.082 -10.55,54.071 -11.88,81.782 l -2.62,0 c -29.03,-63.309 -96.31,-100.25 -167.55,-100.25 -120.05,0 -189.96,63.312 -189.96,217.691 0,83.102 34.28,153.023 87.07,182.027 52.76,29.043 131.91,42.215 191.28,58.047 64.63,17.165 76.51,27.705 76.51,81.795 0,43.52 -19.8,71.23 -67.29,71.23 -59.36,0 -76.5,-35.6 -77.83,-97.61 l -189.96,0"
             inkscape:connector-curvature="0"
             id="path28"
             style="fill:#0d4d84;fill-opacity:1;fill-rule:nonzero;stroke:none" /><path
             d="m 2565.71,1264.19 221.62,0 87.07,-499.979 2.66,0 83.11,499.979 213.72,0 -191.29,-718.979 c -48.82,-183.359 -98.96,-226.91 -265.18,-226.91 -34.29,0 -64.65,0 -92.33,2.64 l 0,150.391 c 17.14,-2.621 35.6,-5.262 52.76,-5.262 40.89,0 77.83,17.141 89.7,79.141 l -201.84,718.979"
             inkscape:connector-curvature="0"
             id="path30"
             style="fill:#0d4d84;fill-opacity:1;fill-rule:nonzero;stroke:none" /><path
             d="m 3183.09,550.488 205.781,0 0,237.453 -205.781,0 0,-237.453 z"
             inkscape:connector-curvature="0"
             id="path32"
             style="fill:#0d4d84;fill-opacity:1;fill-rule:nonzero;stroke:none" /><path
             d="m 3803.13,687.68 c 80.44,0 83.12,109.511 83.12,224.273 0,129.277 -3.96,215.037 -81.82,215.037 -72.55,0 -77.83,-97.63 -77.83,-224.256 0,-138.523 13.2,-215.054 76.53,-215.054 z m -286.29,804.74 213.71,0 0,-306.05 2.65,0 c 35.62,76.49 100.26,96.29 159.63,96.29 175.45,0 207.12,-159.63 207.12,-381.254 0,-266.484 -76.51,-369.386 -220.3,-369.386 -95,0 -138.54,56.73 -154.38,105.539 l -2.63,0 0,-87.071 -205.8,0 0,941.932"
             inkscape:connector-curvature="0"
             id="path34"
             style="fill:#0d4d84;fill-opacity:1;fill-rule:nonzero;stroke:none" /><path
             d="m 4481.21,723.301 c 58.04,0 80.44,42.23 80.44,203.164 0,130.605 -15.8,192.595 -77.81,192.595 -69.92,0 -80.48,-81.77 -80.48,-199.189 0,-149.07 19.8,-196.57 77.85,-196.57 z m 88.37,540.889 197.92,0 0,-688.62 c 0,-160.98 -71.28,-267.808 -296.86,-267.808 -207.11,0 -267.8,91.027 -267.8,197.879 l 197.91,0 c 3.94,-19.801 10.54,-34.309 22.41,-43.532 13.2,-9.25 30.34,-14.507 52.78,-14.507 71.24,0 85.71,46.148 85.71,182.039 l 0,43.539 -2.61,0 c -29.02,-81.789 -96.3,-105.539 -168.85,-105.539 -154.34,0 -200.54,153.019 -200.54,349.593 0,168.876 22.43,365.426 208.44,365.426 96.29,0 143.79,-50.13 168.87,-114.77 l 2.62,0 0,96.3"
             inkscape:connector-curvature="0"
             id="path36"
             style="fill:#0d4d84;fill-opacity:1;fill-rule:nonzero;stroke:none" /></g></g></g></g></svg>